<svg id="e2hpNW6OF0a1" xmlns="http://www.w3.org/2000/svg" xmlns:xlink="http://www.w3.org/1999/xlink" viewBox="0 0 934 687" shape-rendering="geometricPrecision" text-rendering="geometricPrecision">
<style><![CDATA[
#e2hpNW6OF0a24 {animation: e2hpNW6OF0a24_c_o 7000ms linear infinite normal forwards}@keyframes e2hpNW6OF0a24_c_o { 0% {opacity: 0} 30.428571% {opacity: 0} 31.857143% {opacity: 1} 100% {opacity: 1}} #e2hpNW6OF0a32_ts {animation: e2hpNW6OF0a32_ts__ts 7000ms linear infinite normal forwards}@keyframes e2hpNW6OF0a32_ts__ts { 0% {transform: translate(159.499878px,583.044998px) scale(0,0)} 67.142857% {transform: translate(159.499878px,583.044998px) scale(0,0);animation-timing-function: cubic-bezier(0.42,0,0.58,1)} 71.428571% {transform: translate(159.499878px,583.044998px) scale(1.1,1.1);animation-timing-function: cubic-bezier(0.42,0,0.015,1)} 75.714286% {transform: translate(159.499878px,583.044998px) scale(1,1)} 100% {transform: translate(159.499878px,583.044998px) scale(1,1)}} #e2hpNW6OF0a72_ts {animation: e2hpNW6OF0a72_ts__ts 7000ms linear infinite normal forwards}@keyframes e2hpNW6OF0a72_ts__ts { 0% {transform: translate(85.148727px,560.399994px) scale(0,0)} 68.571429% {transform: translate(85.148727px,560.399994px) scale(0,0)} 72.857143% {transform: translate(85.148727px,560.399994px) scale(1,1)} 100% {transform: translate(85.148727px,560.399994px) scale(1,1)}} #e2hpNW6OF0a74_ts {animation: e2hpNW6OF0a74_ts__ts 7000ms linear infinite normal forwards}@keyframes e2hpNW6OF0a74_ts__ts { 0% {transform: translate(124.707657px,603.653442px) scale(0,0)} 68.571429% {transform: translate(124.707657px,603.653442px) scale(0,0)} 72.857143% {transform: translate(124.707657px,603.653442px) scale(1,1)} 100% {transform: translate(124.707657px,603.653442px) scale(1,1)}} #e2hpNW6OF0a76_ts {animation: e2hpNW6OF0a76_ts__ts 7000ms linear infinite normal forwards}@keyframes e2hpNW6OF0a76_ts__ts { 0% {transform: translate(70.78643px,547.20105px) scale(0,0)} 71.428571% {transform: translate(70.78643px,547.20105px) scale(0,0)} 74.285714% {transform: translate(70.78643px,547.20105px) scale(1.1,1.1)} 77.142857% {transform: translate(70.78643px,547.20105px) scale(1,1)} 100% {transform: translate(70.78643px,547.20105px) scale(1,1)}} #e2hpNW6OF0a108 {animation: e2hpNW6OF0a108_c_o 7000ms linear infinite normal forwards}@keyframes e2hpNW6OF0a108_c_o { 0% {opacity: 0} 10% {opacity: 0} 11.428571% {opacity: 1} 100% {opacity: 1}} #e2hpNW6OF0a111_ts {animation: e2hpNW6OF0a111_ts__ts 7000ms linear infinite normal forwards}@keyframes e2hpNW6OF0a111_ts__ts { 0% {transform: translate(608.296997px,74.050003px) scale(0,0)} 67.428571% {transform: translate(608.296997px,74.050003px) scale(0,0);animation-timing-function: cubic-bezier(0.42,0,0.58,1)} 71.428571% {transform: translate(608.296997px,74.050003px) scale(1.1,1.1);animation-timing-function: cubic-bezier(0.42,0,0.58,1)} 75.714286% {transform: translate(608.296997px,74.050003px) scale(1,1)} 100% {transform: translate(608.296997px,74.050003px) scale(1,1)}} #e2hpNW6OF0a161 {animation-name: e2hpNW6OF0a161_s_w, e2hpNW6OF0a161_s_do;animation-duration: 7000ms;animation-fill-mode: forwards;animation-timing-function: linear;animation-direction: normal;animation-iteration-count: infinite;}@keyframes e2hpNW6OF0a161_s_w { 0% {stroke-width: 2} 55.714286% {stroke-width: 2} 60% {stroke-width: 5} 100% {stroke-width: 5}}@keyframes e2hpNW6OF0a161_s_do { 0% {stroke-dashoffset: 368.85} 32.857143% {stroke-dashoffset: 368.85} 51.428571% {stroke-dashoffset: 0} 100% {stroke-dashoffset: 0}} #e2hpNW6OF0a162_ts {animation: e2hpNW6OF0a162_ts__ts 7000ms linear infinite normal forwards}@keyframes e2hpNW6OF0a162_ts__ts { 0% {transform: translate(308.844971px,202.851013px) scale(0,0)} 50.428571% {transform: translate(308.844971px,202.851013px) scale(0,0);animation-timing-function: cubic-bezier(0.42,0,0.58,1)} 56.714286% {transform: translate(308.844971px,202.851013px) scale(1.1,1.1);animation-timing-function: cubic-bezier(0.42,0,0.065,1)} 65.714286% {transform: translate(308.844971px,202.851013px) scale(1,1)} 100% {transform: translate(308.844971px,202.851013px) scale(1,1)}} #e2hpNW6OF0a185_ts {animation: e2hpNW6OF0a185_ts__ts 7000ms linear infinite normal forwards}@keyframes e2hpNW6OF0a185_ts__ts { 0% {transform: translate(388.527718px,248.892px) scale(1,1)} 65.714286% {transform: translate(388.527718px,248.892px) scale(1,1)} 71.428571% {transform: translate(388.527718px,248.892px) scale(0,1)} 100% {transform: translate(388.527718px,248.892px) scale(0,1)}} #e2hpNW6OF0a186_ts {animation: e2hpNW6OF0a186_ts__ts 7000ms linear infinite normal forwards}@keyframes e2hpNW6OF0a186_ts__ts { 0% {transform: translate(285.18231px,200.3832px) scale(1,1)} 61.428571% {transform: translate(285.18231px,200.3832px) scale(1,1)} 67.142857% {transform: translate(285.18231px,200.3832px) scale(0,1)} 100% {transform: translate(285.18231px,200.3832px) scale(0,1)}} #e2hpNW6OF0a192 {animation-name: e2hpNW6OF0a192_s_w, e2hpNW6OF0a192_s_do;animation-duration: 7000ms;animation-fill-mode: forwards;animation-timing-function: linear;animation-direction: normal;animation-iteration-count: infinite;}@keyframes e2hpNW6OF0a192_s_w { 0% {stroke-width: 2} 64.285714% {stroke-width: 2} 70% {stroke-width: 5} 100% {stroke-width: 5}}@keyframes e2hpNW6OF0a192_s_do { 0% {stroke-dashoffset: 361.13} 54.285714% {stroke-dashoffset: 361.13} 71.428571% {stroke-dashoffset: 0} 100% {stroke-dashoffset: 0}} #e2hpNW6OF0a193_to {animation: e2hpNW6OF0a193_to__to 7000ms linear infinite normal forwards}@keyframes e2hpNW6OF0a193_to__to { 0% {offset-distance: 0%} 32.857143% {offset-distance: 0%} 36.142857% {offset-distance: 17.826915%} 40.285714% {offset-distance: 39.825313%} 42.714286% {offset-distance: 53.43517%} 45.428571% {offset-distance: 67.365077%} 47.714286% {offset-distance: 80.110784%} 51.428571% {offset-distance: 100%} 100% {offset-distance: 100%}} #e2hpNW6OF0a193_tr {animation: e2hpNW6OF0a193_tr__tr 7000ms linear infinite normal forwards}@keyframes e2hpNW6OF0a193_tr__tr { 0% {transform: rotate(-127.515695deg)} 32.857143% {transform: rotate(-127.515695deg)} 36.142857% {transform: rotate(-81.102655deg)} 40.285714% {transform: rotate(2.912684deg)} 42.714286% {transform: rotate(87.320037deg)} 45.428571% {transform: rotate(251.670433deg)} 47.714286% {transform: rotate(342.466408deg)} 49.571429% {transform: rotate(372.446078deg)} 51.428571% {transform: rotate(403.231034deg)} 100% {transform: rotate(403.231034deg)}} #e2hpNW6OF0a193_ts {animation: e2hpNW6OF0a193_ts__ts 7000ms linear infinite normal forwards}@keyframes e2hpNW6OF0a193_ts__ts { 0% {transform: scale(0,0)} 31.428571% {transform: scale(0,0)} 32.857143% {transform: scale(1,1)} 51.428571% {transform: scale(1,1)} 52.857143% {transform: scale(0,0)} 100% {transform: scale(0,0)}} #e2hpNW6OF0a198_to {animation: e2hpNW6OF0a198_to__to 7000ms linear infinite normal forwards}@keyframes e2hpNW6OF0a198_to__to { 0% {offset-distance: 0%} 54.285714% {offset-distance: 0%} 57% {offset-distance: 13.862342%} 59.571429% {offset-distance: 29.113422%} 61.714286% {offset-distance: 42.2892%} 64.428571% {offset-distance: 58.362761%} 67.428571% {offset-distance: 77.676675%} 71.428571% {offset-distance: 100%} 100% {offset-distance: 100%}} #e2hpNW6OF0a198_tr {animation: e2hpNW6OF0a198_tr__tr 7000ms linear infinite normal forwards}@keyframes e2hpNW6OF0a198_tr__tr { 0% {transform: rotate(32.229166deg)} 54.285714% {transform: rotate(32.229166deg)} 57% {transform: rotate(-26.189144deg)} 59.571429% {transform: rotate(-96.210971deg)} 61.714286% {transform: rotate(-201.073411deg)} 64.428571% {transform: rotate(-345.792145deg)} 67.428571% {transform: rotate(-362.857909deg)} 69.571429% {transform: rotate(-352.181751deg)} 71.428571% {transform: rotate(-348.727846deg)} 100% {transform: rotate(-348.727846deg)}} #e2hpNW6OF0a198_ts {animation: e2hpNW6OF0a198_ts__ts 7000ms linear infinite normal forwards}@keyframes e2hpNW6OF0a198_ts__ts { 0% {transform: scale(0,0)} 52.857143% {transform: scale(0,0)} 54.285714% {transform: scale(1,1)} 71.428571% {transform: scale(1,1)} 100% {transform: scale(1,1)}} #e2hpNW6OF0a203_to {animation: e2hpNW6OF0a203_to__to 7000ms linear infinite normal forwards}@keyframes e2hpNW6OF0a203_to__to { 0% {transform: translate(725.372px,412.864178px);animation-timing-function: cubic-bezier(0.42,0,0.58,1)} 4.285714% {transform: translate(683.237px,349.0625px);animation-timing-function: cubic-bezier(0.42,0,0.58,1)} 17.142857% {transform: translate(683.237px,349.0625px);animation-timing-function: cubic-bezier(0.42,0,0.58,1)} 23.428571% {transform: translate(592.201px,542.369189px);animation-timing-function: cubic-bezier(0.42,0,0.58,1)} 29.142857% {transform: translate(592.201px,542.369189px);animation-timing-function: cubic-bezier(0.42,0,0.58,1)} 39.571429% {transform: translate(592.201px,542.369189px);animation-timing-function: cubic-bezier(0.42,0,0.58,1)} 41.571429% {transform: translate(592.201px,542.9275px)} 100% {transform: translate(592.201px,542.9275px)}} #e2hpNW6OF0a203_ts {animation: e2hpNW6OF0a203_ts__ts 7000ms linear infinite normal forwards}@keyframes e2hpNW6OF0a203_ts__ts { 0% {transform: scale(0.5,0.5)} 10% {transform: scale(0.5,0.5);animation-timing-function: cubic-bezier(0.42,0,0.58,1)} 11.428571% {transform: scale(0.4,0.4);animation-timing-function: cubic-bezier(0.42,0,0.58,1)} 12.857143% {transform: scale(0.5,0.5)} 29.142857% {transform: scale(0.5,0.5);animation-timing-function: cubic-bezier(0.42,0,0.58,1)} 30.571429% {transform: scale(0.4,0.4);animation-timing-function: cubic-bezier(0.42,0,0.58,1)} 32% {transform: scale(0.5,0.5)} 100% {transform: scale(0.5,0.5)}}
]]></style>
<defs><filter id="e2hpNW6OF0a6-filter" x="-150%" width="400%" y="-150%" height="400%"><feGaussianBlur id="e2hpNW6OF0a6-filter-drop-shadow-0-blur" in="SourceAlpha" stdDeviation="15,15"/><feOffset id="e2hpNW6OF0a6-filter-drop-shadow-0-offset" dx="-15" dy="15" result="tmp"/><feFlood id="e2hpNW6OF0a6-filter-drop-shadow-0-flood" flood-color="rgba(0,0,0,0.15)"/><feComposite id="e2hpNW6OF0a6-filter-drop-shadow-0-composite" operator="in" in2="tmp"/><feMerge id="e2hpNW6OF0a6-filter-drop-shadow-0-merge" result="result"><feMergeNode id="e2hpNW6OF0a6-filter-drop-shadow-0-merge-node-1"/><feMergeNode id="e2hpNW6OF0a6-filter-drop-shadow-0-merge-node-2" in="SourceGraphic"/></feMerge></filter><filter id="e2hpNW6OF0a37-filter" x="-150%" width="400%" y="-150%" height="400%"><feGaussianBlur id="e2hpNW6OF0a37-filter-drop-shadow-0-blur" in="SourceAlpha" stdDeviation="15,15"/><feOffset id="e2hpNW6OF0a37-filter-drop-shadow-0-offset" dx="-15" dy="15" result="tmp"/><feFlood id="e2hpNW6OF0a37-filter-drop-shadow-0-flood" flood-color="rgba(0,0,0,0.15)"/><feComposite id="e2hpNW6OF0a37-filter-drop-shadow-0-composite" operator="in" in2="tmp"/><feMerge id="e2hpNW6OF0a37-filter-drop-shadow-0-merge" result="result"><feMergeNode id="e2hpNW6OF0a37-filter-drop-shadow-0-merge-node-1"/><feMergeNode id="e2hpNW6OF0a37-filter-drop-shadow-0-merge-node-2" in="SourceGraphic"/></feMerge></filter><filter id="e2hpNW6OF0a94-filter" x="-150%" width="400%" y="-150%" height="400%"><feGaussianBlur id="e2hpNW6OF0a94-filter-drop-shadow-0-blur" in="SourceAlpha" stdDeviation="15,15"/><feOffset id="e2hpNW6OF0a94-filter-drop-shadow-0-offset" dx="-15" dy="15" result="tmp"/><feFlood id="e2hpNW6OF0a94-filter-drop-shadow-0-flood" flood-color="rgba(0,0,0,0.15)"/><feComposite id="e2hpNW6OF0a94-filter-drop-shadow-0-composite" operator="in" in2="tmp"/><feMerge id="e2hpNW6OF0a94-filter-drop-shadow-0-merge" result="result"><feMergeNode id="e2hpNW6OF0a94-filter-drop-shadow-0-merge-node-1"/><feMergeNode id="e2hpNW6OF0a94-filter-drop-shadow-0-merge-node-2" in="SourceGraphic"/></feMerge></filter><filter id="e2hpNW6OF0a115-filter" x="-150%" width="400%" y="-150%" height="400%"><feGaussianBlur id="e2hpNW6OF0a115-filter-drop-shadow-0-blur" in="SourceAlpha" stdDeviation="15,15"/><feOffset id="e2hpNW6OF0a115-filter-drop-shadow-0-offset" dx="-15" dy="15" result="tmp"/><feFlood id="e2hpNW6OF0a115-filter-drop-shadow-0-flood" flood-color="rgba(0,0,0,0.15)"/><feComposite id="e2hpNW6OF0a115-filter-drop-shadow-0-composite" operator="in" in2="tmp"/><feMerge id="e2hpNW6OF0a115-filter-drop-shadow-0-merge" result="result"><feMergeNode id="e2hpNW6OF0a115-filter-drop-shadow-0-merge-node-1"/><feMergeNode id="e2hpNW6OF0a115-filter-drop-shadow-0-merge-node-2" in="SourceGraphic"/></feMerge></filter><filter id="e2hpNW6OF0a166-filter" x="-150%" width="400%" y="-150%" height="400%"><feGaussianBlur id="e2hpNW6OF0a166-filter-drop-shadow-0-blur" in="SourceAlpha" stdDeviation="15,15"/><feOffset id="e2hpNW6OF0a166-filter-drop-shadow-0-offset" dx="-15" dy="15" result="tmp"/><feFlood id="e2hpNW6OF0a166-filter-drop-shadow-0-flood" flood-color="rgba(0,0,0,0.15)"/><feComposite id="e2hpNW6OF0a166-filter-drop-shadow-0-composite" operator="in" in2="tmp"/><feMerge id="e2hpNW6OF0a166-filter-drop-shadow-0-merge" result="result"><feMergeNode id="e2hpNW6OF0a166-filter-drop-shadow-0-merge-node-1"/><feMergeNode id="e2hpNW6OF0a166-filter-drop-shadow-0-merge-node-2" in="SourceGraphic"/></feMerge></filter></defs><g><g transform="translate(209.253-3585.19)"><g transform="translate(-23432.6 3527.38)"><g transform="translate(23223.4 57.8)"><path d="M447.6,420h190.6c3.3,0,6,2.7,6,6v126.7c0,3.3-2.7,6-6,6h-190.6c-3.3,0-6-2.7-6-6v-126.7c0-3.3,2.7-6,6-6Z" filter="url(#e2hpNW6OF0a6-filter)" fill="#fff"/></g><g transform="translate(.002 2.434)"><path d="M23687.6,506.4h1.6l.6-2h3.4l.6,2h1.7l-2.9-8.6h-2.2l-2.8,8.6Zm2.6-3.2l1.3-4.1l1.3,4.1h-2.6Zm7.2,3.2h1.8l2.3-6.3h-1.5l-1.6,4.8-1.6-4.8h-1.6l2.2,6.3Zm8.4,0h1.5v-4.1c0-1.6-1.1-2.3-2.6-2.3-1.1-.1-2.2.5-2.7,1.5l1.2.5c.2-.6.8-.9,1.4-.9c1,0,1.2.6,1.2,1.5v.1h-.7c-1.5,0-3.3.3-3.3,2c0,1.2.9,1.8,2.1,1.8.8,0,1.5-.3,2-.9v.8h-.1Zm-.1-2.9v.6c0,.8-.8,1.2-1.5,1.2-.6,0-1-.2-1-.8c0-.9,1.1-1,1.8-1h.7Zm3-5.2c0,.5.4.9.9.9c0,0,0,0,0,0c.5,0,.8-.3.9-.8c0,0,0,0,0,0c0-.5-.4-.9-.8-.9c0,0,0,0,0,0-.6-.1-1,.3-1,.8c0,0,0,0,0,0Zm.2,8.1h1.5v-6.3h-1.5v6.3Zm3.2,0h1.5v-9.5l-1.5.6v8.9Zm6.8,0h1.5v-4.1c0-1.6-1.1-2.3-2.6-2.3-1.1-.1-2.2.5-2.7,1.5l1.2.5c.2-.6.8-.9,1.4-.9c1,0,1.2.6,1.2,1.5v.1h-.7c-1.5,0-3.3.3-3.3,2c0,1.2.9,1.8,2.1,1.8.8,0,1.5-.3,1.9-.9v.8Zm0-2.9v.6c0,.8-.8,1.2-1.5,1.2-.6,0-1-.2-1-.8c0-.9,1.1-1,1.8-1h.7Zm3,2.9h1.5v-1c.5.7,1.3,1.2,2.2,1.1c1.8,0,2.8-1.5,2.8-3.3c0-1.7-.9-3.3-2.9-3.3-.9,0-1.7.4-2.1,1.1v-3.9h-1.5v9.3Zm3.3-1.1c-1.2,0-1.8-.9-1.8-2.1c0-1.1.5-2.1,1.7-2.1s1.8,1,1.8,2c0,1.2-.4,2.2-1.7,2.2Zm4.5,1.1h1.5v-9.5l-1.5.6v8.9Zm7.6-1.9c-.3.6-.9,1-1.6.9-.9.1-1.7-.7-1.8-1.6c0-.1,0-.2,0-.3h4.6c0-2.4-1-3.6-3-3.6-1.7,0-3.1,1.3-3.2,3c0,.1,0,.2,0,.2-.1,1.7,1.1,3.1,2.8,3.3.1,0,.3,0,.4,0c1.1.1,2.2-.5,2.8-1.5l-1-.4Zm-3.3-1.9c0-.9.8-1.5,1.6-1.5s1.5.6,1.5,1.4c0,0,0,.1,0,.1h-3.1Zm7.9,1.7c.5,1.6,2,2.1,3.6,2.1s3.2-.9,3.2-2.7c0-2-1.5-2.3-2.9-2.5-1-.2-1.9-.4-1.9-1.3c0-.8.7-1.1,1.4-1.1.8,0,1.6.5,1.9,1.2l1.2-.5c-.5-1.2-1.8-2-3.1-1.9-1.5,0-3,.8-3,2.5c0,2,1.5,2.3,2.8,2.5c1,.2,2,.4,2,1.3s-.8,1.3-1.6,1.3c-1,.1-1.9-.5-2.3-1.5l-1.3.6Zm8.1,2.1h1.5v-9.5l-1.5.6v8.9Zm2.6-3.2c0,1.8,1.5,3.3,3.3,3.2.1,0,.1,0,.2,0c1.8.1,3.3-1.3,3.4-3.1c0-.1,0-.1,0-.2c0-1.8-1.4-3.2-3.2-3.3-.1,0-.1,0-.2,0-1.8-.1-3.4,1.3-3.5,3.2c0,.1,0,.2,0,.2Zm3.4,2.1c-1,0-1.8-.8-1.8-1.8c0-.1,0-.1,0-.2c0-1.1.5-2.2,1.8-2.2c1.2,0,1.8,1,1.8,2.1s-.5,2.1-1.8,2.1v0Zm7.7-.2c-.2.1-.4.1-.7.1-.6,0-.8-.3-.8-.8v-3.3h1.4v-1.1h-1.4v-1.9l-1.5.7v1.3h-.8v1.1h.8v3.4c-.1.9.6,1.8,1.5,1.9.1,0,.3,0,.4,0c.3,0,.7-.1,1-.2l.1-1.2Zm.8-.1c.5,1,1.6,1.6,2.7,1.5c1.3,0,2.5-.5,2.5-2s-1.2-1.7-2.2-1.9c-.8-.1-1.4-.3-1.4-.8s.5-.7,1-.7c.6,0,1.1.3,1.4.8l1.1-.5c-.5-.9-1.5-1.5-2.5-1.4-1.1-.1-2.2.7-2.3,1.8c0,0,0,.1,0,.1c0,1.4,1.1,1.7,2.1,1.9.8.2,1.5.3,1.5.9s-.6.7-1.1.7c-.7.1-1.3-.3-1.6-.9l-1.2.5Z"/><g transform="translate(5.016-4)"><g transform="translate(23617.2 508.206)"><path d="M66.7,16.1h73.5c1.1,0,2,.9,2,2v30c0,1.1-.9,2-2,2h-73.5c-1.1,0-2-.9-2-2v-30c0-1.1.9-2,2-2Z" fill="#fff"/><path d="M66.7,16.6h73.5c.8,0,1.5.7,1.5,1.5v30c0,.8-.7,1.5-1.5,1.5h-73.5c-.8,0-1.5-.7-1.5-1.5v-30c0-.8.7-1.5,1.5-1.5Z" fill="none" stroke="#8760cf"/></g><g transform="translate(23617.2 547.206)"><path d="M66.7,16.1h73.5c1.1,0,2,.9,2,2v30c0,1.1-.9,2-2,2h-73.5c-1.1,0-2-.9-2-2v-30c0-1.1.9-2,2-2Z" fill="#fff"/><path d="M66.7,16.6h73.5c.8,0,1.5.7,1.5,1.5v30c0,.8-.7,1.5-1.5,1.5h-73.5c-.8,0-1.5-.7-1.5-1.5v-30c0-.8.7-1.5,1.5-1.5Z" fill="none" stroke="#8760cf"/></g><g transform="translate(23699.2 508.206)"><path d="M66.7,16.1h73.5c1.1,0,2,.9,2,2v30c0,1.1-.9,2-2,2h-73.5c-1.1,0-2-.9-2-2v-30c0-1.1.9-2,2-2Z" fill="#fff"/><path d="M66.7,16.6h73.5c.8,0,1.5.7,1.5,1.5v30c0,.8-.7,1.5-1.5,1.5h-73.5c-.8,0-1.5-.7-1.5-1.5v-30c0-.8.7-1.5,1.5-1.5Z" fill="none" stroke="#8760cf"/></g><path d="M23766,563.3h73.5c1.1,0,2,.9,2,2v30c0,1.1-.9,2-2,2h-73.5c-1.1,0-2-.9-2-2v-30c0-1.1.9-2,2-2Z" fill="none" stroke="#8760cf"/><path d="M23698.2,543.4c.3,1.2,1.5,2.1,2.7,2c2,0,2.9-1.7,2.9-3.5c0-1.9-.7-3.8-2.9-3.8-2,0-2.9,1.7-2.9,3.5-.1.6,0,1.2.2,1.8Zm2.7,1.1c-1.5,0-1.8-1.4-1.8-2.6c0-1.3.2-3,1.8-3c1.4,0,1.8,1.4,1.8,2.6c0,1.3-.1,3-1.8,3Zm4.1-.6c.4,1,1.4,1.6,2.5,1.5c2.1,0,2.7-1.9,2.7-3.7c0-1.9-.4-3.7-2.7-3.7-1.3-.1-2.4.8-2.6,2.1c0,.1,0,.2,0,.3-.1,1.2.9,2.3,2.2,2.4.1,0,.1,0,.2,0c.7,0,1.4-.3,1.8-.9c0,1.1-.3,2.6-1.7,2.6-.7,0-1.3-.4-1.6-1l-.8.4Zm2.5-1.9c-.8,0-1.4-.6-1.5-1.4c0-.1,0-.1,0-.2-.1-.8.5-1.5,1.3-1.5.1,0,.1,0,.2,0c.8,0,1.5.7,1.5,1.5c0,.1,0,.1,0,.2c0,.8-.6,1.4-1.4,1.4c0,0,0,0-.1,0v0Zm4.1-1.9c0,.4.3.7.7.7c0,0,0,0,0,0c.4,0,.7-.3.7-.7c0,0,0,0,0,0c0-.4-.3-.7-.7-.7s-.7.3-.7.7c0,0,0,0,0,0v0Zm0,3.6c0,.4.3.7.7.7c0,0,0,0,0,0c.4,0,.7-.3.7-.7c0,0,0,0,0,0c0-.4-.3-.7-.7-.7s-.7.3-.7.7c0,0,0,0,0,0v0Zm3-.3c.3,1.2,1.5,2.1,2.7,2c2,0,2.9-1.7,2.9-3.5c0-1.9-.7-3.8-2.9-3.8-2,0-2.9,1.7-2.9,3.5c0,.6.1,1.2.2,1.8v0Zm2.8,1.1c-1.5,0-1.8-1.4-1.8-2.6c0-1.3.2-3,1.8-3c1.4,0,1.8,1.4,1.8,2.6-.1,1.3-.2,3-1.8,3Zm4.3-1.1c.3,1.2,1.5,2.1,2.7,2c2,0,2.9-1.7,2.9-3.5c0-1.9-.7-3.8-2.9-3.8-2,0-2.9,1.6-2.9,3.5-.1.6,0,1.2.2,1.8Zm2.7,1.1c-1.5,0-1.8-1.4-1.8-2.6c0-1.3.2-3,1.8-3c1.4,0,1.8,1.4,1.8,2.6c0,1.3-.1,3-1.8,3Zm9.2.8h1v-3.4c0-1-.7-1.9-1.7-1.9-.1,0-.2,0-.3,0-.9-.1-1.8.4-2.2,1.3l.9.4c.2-.5.7-.8,1.2-.8c1,0,1.1.6,1.1,1.4h-.7c-1.2,0-2.7.2-2.7,1.6c0,.9.7,1.6,1.6,1.6.1,0,.1,0,.2,0c.6,0,1.2-.3,1.6-.7v.5Zm0-2.4v.6c-.1.7-.7,1.2-1.4,1.2c0,0,0,0,0,0-.5,0-.9-.2-.9-.8c0-.9,1-1,1.7-1h.6Zm2.5,2.4h1v-3.2c-.1-.6.4-1.2,1.1-1.3.1,0,.1,0,.2,0c.7,0,1.1.4,1.1,1.2v3.3h1v-3.2c-.1-.6.4-1.2,1-1.3c0,0,.1,0,.1,0c.8,0,1.1.4,1.1,1.2v3.3h1v-3.3c.1-1-.6-1.9-1.5-2-.1,0-.2,0-.3,0-.7,0-1.4.3-1.8,1-.3-.6-.9-1-1.6-1-.6,0-1.2.3-1.5.9v-.8h-1v5.2h.1Z"/><path d="M23700.8,583.3h1.1v-7.1h-1l-1.7,1.1v1l1.5-1v6h.1Zm3.1-1.9c.3,1.2,1.5,2.1,2.7,2c2,0,2.9-1.7,2.9-3.5c0-1.9-.7-3.8-2.9-3.8-2,0-2.9,1.7-2.9,3.5c0,.6.1,1.2.2,1.8v0Zm2.8,1.1c-1.5,0-1.8-1.4-1.8-2.6c0-1.3.2-3,1.8-3c1.4,0,1.8,1.4,1.8,2.6-.1,1.3-.2,3-1.8,3Zm4.2-4.4c0,.4.3.7.7.7c0,0,0,0,0,0c.4,0,.7-.3.7-.7c0,0,0,0,0,0c0-.4-.3-.7-.7-.7-.3,0-.7.3-.7.7c0,0,0,0,0,0v0Zm0,3.6c0,.4.3.7.7.7c0,0,0,0,0,0c.4,0,.7-.3.7-.7c0,0,0,0,0,0c0-.4-.3-.7-.7-.7-.3,0-.7.3-.7.7c0,0,0,0,0,0v0Zm2.7-.1c.3,1.1,1.4,1.9,2.5,1.8c1.3,0,2.6-.6,2.6-2.1.1-.8-.5-1.6-1.4-1.8.7-.2,1.2-.8,1.2-1.6-.1-1.1-1.1-2-2.2-1.9c0,0-.1,0-.1,0-1.1,0-2.1.7-2.4,1.7l.8.4c.2-.7.8-1.2,1.5-1.2.6-.1,1.1.4,1.2.9c0,.1,0,.1,0,.2c0,1.1-.8,1.1-1.7,1.1h-.1v.8c1,0,1.9,0,1.9,1.3c0,.9-.7,1.3-1.5,1.3s-1.4-.6-1.6-1.3l-.7.4Zm6.6-.2c.3,1.2,1.5,2.1,2.7,2c2,0,2.9-1.7,2.9-3.5c0-1.9-.7-3.8-2.9-3.8-2,0-2.9,1.6-2.9,3.5-.1.6,0,1.2.2,1.8Zm2.7,1.1c-1.5,0-1.8-1.4-1.8-2.6c0-1.3.2-3,1.8-3c1.4,0,1.8,1.4,1.8,2.6-.1,1.3-.1,3-1.8,3Zm9.2.8h1v-3.4c0-1-.7-1.9-1.7-1.9-.1,0-.2,0-.3,0-.9-.1-1.8.4-2.2,1.3l.8.4c.2-.5.7-.8,1.2-.8c1,0,1.1.6,1.1,1.4h-.6c-1.2,0-2.7.2-2.7,1.6c0,.9.7,1.6,1.6,1.6.1,0,.1,0,.2,0c.6,0,1.2-.3,1.6-.7v.5Zm-.1-2.4v.6c-.1.7-.7,1.2-1.4,1.2c0,0,0,0,0,0-.5,0-.9-.2-.9-.8c0-.9,1-1,1.7-1h.6Zm2.5,2.4h1v-3.2c-.1-.6.4-1.2,1.1-1.3.1,0,.1,0,.2,0c.7,0,1.1.4,1.1,1.2v3.3h1v-3.2c-.1-.6.4-1.2,1-1.3c0,0,.1,0,.1,0c.8,0,1.1.4,1.1,1.2v3.3h1v-3.3c.1-1-.6-1.9-1.5-2-.1,0-.2,0-.3,0-.7,0-1.4.3-1.8,1-.3-.6-.9-1-1.6-1-.6,0-1.2.3-1.5.9v-.8h-1l.1,5.2Z"/><path d="M23780.6,543.4c.3,1.2,1.5,2.1,2.7,2c2,0,2.9-1.7,2.9-3.5c0-1.9-.7-3.8-2.9-3.8-2,0-2.9,1.7-2.9,3.5c0,.6.1,1.2.2,1.8Zm2.8,1.1c-1.5,0-1.8-1.4-1.8-2.6c0-1.3.2-3,1.8-3c1.4,0,1.8,1.4,1.8,2.6-.1,1.3-.2,3-1.8,3v0Zm4-.6c.4,1,1.4,1.6,2.5,1.5c2.1,0,2.7-1.9,2.7-3.7c0-1.9-.4-3.7-2.7-3.7-1.3-.1-2.4.8-2.6,2.1c0,.1,0,.2,0,.3-.1,1.2.9,2.3,2.2,2.4.1,0,.1,0,.2,0c.7,0,1.4-.3,1.8-.9c0,1.1-.3,2.6-1.7,2.6-.7,0-1.3-.4-1.6-1l-.8.4Zm2.5-1.9c-.8,0-1.4-.6-1.5-1.4c0-.1,0-.1,0-.2-.1-.8.5-1.5,1.3-1.5.1,0,.1,0,.2,0c.8,0,1.5.7,1.5,1.5c0,.1,0,.1,0,.2c0,.8-.6,1.4-1.4,1.4c0,0,0,0-.1,0v0Zm4.1-1.9c0,.4.3.7.7.7c0,0,0,0,0,0c.4,0,.7-.3.7-.7c0,0,0,0,0,0c0-.4-.3-.7-.7-.7-.3,0-.7.3-.7.7c0,0,0,0,0,0v0Zm0,3.6c0,.4.3.7.7.7c0,0,0,0,0,0c.4,0,.7-.3.7-.7c0,0,0,0,0,0c0-.4-.3-.7-.7-.7s-.7.3-.7.7c0,0,0,0,0,0v0Zm2.7-.1c.3,1.1,1.4,1.9,2.5,1.8c1.3,0,2.6-.6,2.6-2.1.1-.8-.5-1.6-1.4-1.8.7-.2,1.2-.8,1.2-1.6-.1-1.1-1.1-2-2.2-1.9c0,0-.1,0-.1,0-1.1,0-2.1.7-2.4,1.7l.8.4c.2-.7.8-1.2,1.5-1.2.6-.1,1.1.4,1.2.9c0,.1,0,.1,0,.2c0,1.1-.8,1.1-1.7,1.1h-.1v.8c1,0,1.9,0,1.9,1.3c0,.9-.7,1.3-1.5,1.3s-1.4-.6-1.6-1.3l-.7.4Zm6.6-.2c.3,1.2,1.5,2.1,2.7,2c2,0,2.9-1.7,2.9-3.5c0-1.9-.7-3.8-2.9-3.8-2,0-2.9,1.6-2.9,3.5-.1.6,0,1.2.2,1.8Zm2.7,1.1c-1.5,0-1.8-1.4-1.8-2.6c0-1.3.2-3,1.8-3c1.4,0,1.8,1.4,1.8,2.6-.1,1.3-.2,3-1.8,3Zm9.2.8h1v-3.4c0-1-.7-1.9-1.7-1.9-.1,0-.2,0-.3,0-.9-.1-1.8.4-2.2,1.3l.8.4c.2-.5.7-.8,1.2-.8c1,0,1.1.6,1.1,1.4h-.6c-1.2,0-2.7.2-2.7,1.6c0,.9.7,1.6,1.6,1.6.1,0,.1,0,.2,0c.6,0,1.2-.3,1.6-.7v.5Zm-.1-2.4v.6c-.1.7-.7,1.2-1.4,1.2c0,0,0,0,0,0-.5,0-.9-.2-.9-.8c0-.9,1-1,1.7-1h.6Zm2.5,2.4h1v-3.2c-.1-.6.4-1.2,1.1-1.3.1,0,.1,0,.2,0c.7,0,1.1.4,1.1,1.2v3.3h1v-3.2c-.1-.6.4-1.2,1-1.3c0,0,.1,0,.1,0c.8,0,1.1.4,1.1,1.2v3.3h1v-3.3c.1-1-.6-1.9-1.5-2-.1,0-.2,0-.3,0-.7,0-1.4.3-1.8,1-.3-.6-.9-1-1.6-1-.6,0-1.2.3-1.5.9v-.8h-1v5.2h.1Z"/><path d="M23783.8,583.3h1.1v-7.1h-1l-1.7,1.1v1l1.5-1l.1,6Zm4.2,0h1.1v-7.1h-1l-1.6,1.1v1l1.5-1v6Zm3.1-5.2c0,.4.3.7.7.7c0,0,0,0,0,0c.4,0,.7-.3.7-.7c0,0,0,0,0,0c0-.4-.3-.7-.7-.7s-.7.3-.7.7c0,0,0,0,0,0v0Zm0,3.6c0,.4.3.7.7.7c0,0,0,0,0,0c.4,0,.7-.3.7-.7c0,0,0,0,0,0c0-.4-.3-.7-.7-.7s-.7.3-.7.7c0,0,0,0,0,0v0Zm3-.3c.3,1.2,1.5,2.1,2.7,2c2,0,2.9-1.7,2.9-3.5c0-1.9-.7-3.8-2.9-3.8-2,0-2.9,1.7-2.9,3.5c0,.6.1,1.2.2,1.8v0Zm2.8,1.1c-1.5,0-1.8-1.4-1.8-2.6c0-1.3.2-3,1.8-3c1.4,0,1.8,1.4,1.8,2.6-.1,1.3-.2,3-1.8,3Zm4.3-1.1c.3,1.2,1.5,2.1,2.7,2c2,0,2.9-1.7,2.9-3.5c0-1.9-.7-3.8-2.9-3.8-2,0-2.9,1.7-2.9,3.5-.1.6,0,1.2.2,1.8Zm2.7,1.1c-1.5,0-1.8-1.4-1.8-2.6c0-1.3.2-3,1.8-3c1.4,0,1.8,1.4,1.8,2.6c0,1.3-.1,3-1.8,3Zm9.2.8h1v-3.4c0-1-.7-1.9-1.7-1.9-.1,0-.2,0-.3,0-.9-.1-1.8.4-2.2,1.3l.8.4c.2-.5.7-.8,1.2-.8c1,0,1.1.6,1.1,1.4h-.6c-1.2,0-2.7.2-2.7,1.6c0,.9.7,1.6,1.6,1.6.1,0,.1,0,.2,0c.6,0,1.2-.3,1.6-.7v.5Zm0-2.4v.6c-.1.7-.7,1.2-1.4,1.2c0,0,0,0,0,0-.5,0-.9-.2-.9-.8c0-.9,1-1,1.7-1h.6Zm2.5,2.4h1v-3.2c-.1-.6.4-1.2,1.1-1.3.1,0,.1,0,.2,0c.7,0,1.1.4,1.1,1.2v3.3h1v-3.2c-.1-.6.4-1.2,1-1.3c0,0,.1,0,.1,0c.8,0,1.1.4,1.1,1.2v3.3h1v-3.3c.1-1-.6-1.9-1.5-2-.1,0-.2,0-.3,0-.7,0-1.4.3-1.8,1-.3-.6-.9-1-1.6-1-.6,0-1.2.3-1.5.9v-.8h-1v5.2h.1Z"/></g></g></g></g></g><g id="e2hpNW6OF0a24" opacity="0"><path d="M547.3,503.7h73.5c1.1,0,2,.9,2,2v30c0,1.1-.9,2-2,2h-73.5c-1.1,0-2-.9-2-2v-30c0-1.1.9-2,2-2Z" fill="#8860d0"/><path d="M565.2,523.7h1.1v-7.1h-1l-1.7,1.1v1l1.5-1l.1,6Zm4.2,0h1.1v-7.1h-1l-1.7,1.1v1l1.5-1v6h.1Zm3.1-5.2c0,.4.3.7.7.7c0,0,0,0,0,0c.4,0,.7-.3.7-.7c0,0,0,0,0,0c0-.4-.3-.7-.7-.7-.4-.1-.7.2-.7.7c0-.1,0,0,0,0v0Zm0,3.6c0,.4.3.7.7.7c0,0,0,0,0,0c.4,0,.7-.3.7-.7c0,0,0,0,0,0c0-.4-.3-.7-.7-.7s-.7.3-.7.7c0,0,0,0,0,0v0Zm3-.3c.3,1.2,1.5,2.1,2.7,2c2,0,2.9-1.7,2.9-3.5c0-1.9-.7-3.8-2.9-3.8-2,0-2.9,1.7-2.9,3.5c0,.6,0,1.2.2,1.8v0Zm2.8,1.1c-1.5,0-1.8-1.4-1.8-2.6c0-1.3.2-3,1.8-3c1.4,0,1.8,1.4,1.8,2.6-.1,1.3-.2,3-1.8,3Zm4.3-1.1c.3,1.2,1.5,2.1,2.7,2c2,0,2.9-1.7,2.9-3.5c0-1.9-.7-3.8-2.9-3.8-2,0-2.9,1.7-2.9,3.5-.1.6,0,1.2.2,1.8Zm2.7,1.1c-1.5,0-1.8-1.4-1.8-2.6c0-1.3.2-3,1.8-3c1.4,0,1.8,1.4,1.8,2.6-.1,1.3-.1,3-1.8,3Zm9.2.8h1v-3.4c0-1-.7-1.9-1.7-1.9-.1,0-.2,0-.3,0-.9-.1-1.8.4-2.2,1.3l.8.4c.2-.5.7-.8,1.2-.8c1,0,1.1.6,1.1,1.4h-.6c-1.2,0-2.7.2-2.7,1.6c0,.9.7,1.6,1.6,1.6.1,0,.1,0,.2,0c.6,0,1.2-.3,1.6-.7v.5Zm0-2.4v.6c-.1.7-.7,1.2-1.4,1.2c0,0,0,0,0,0-.5,0-.9-.2-.9-.8c0-.9,1-1,1.7-1h.6Zm2.4,2.4h1v-3.2c-.1-.6.4-1.2,1.1-1.3.1,0,.1,0,.2,0c.7,0,1.1.4,1.1,1.2v3.3h1v-3.2c-.1-.6.4-1.2,1-1.3c0,0,.1,0,.1,0c.8,0,1.1.4,1.1,1.2v3.3h1v-3.3c.1-1-.6-1.9-1.5-2-.1,0-.2,0-.3,0-.7,0-1.4.3-1.8,1-.3-.6-.9-1-1.6-1-.6,0-1.2.3-1.5.9v-.8h-1v5.2h.1Z" fill="#fff"/></g><g clip-path="url(#e2hpNW6OF0a30)"><clipPath id="e2hpNW6OF0a30"><rect width="137.917" height="26.279017" rx="0" ry="0" transform="translate(116 558.13169)" fill="#d2dbed" stroke-width="0"/></clipPath></g><g id="e2hpNW6OF0a32_ts" transform="translate(159.499878,583.044998) scale(0,0)"><g transform="translate(-219.499878,-503.044998)"><g transform="translate(-815.128-219.639)"><g transform="translate(-451.592 177.517)"><g transform="translate(1334.72 495.107)"><g transform="translate(-68-452.99)"><path d="M133.7,469.1h171.6c3.3,0,6,2.7,6,6v55.9c0,3.3-2.7,6-6,6h-171.6c-3.3,0-6-2.7-6-6v-55.9c0-3.3,2.7-6,6-6Z" filter="url(#e2hpNW6OF0a37-filter)" fill="#fff"/></g><path d="M132.7,50.8c.1.4.3.8.7,1c.3.2.7.4,1.1.4.2,0,.4,0,.6-.1s.3-.1.5-.3c.1-.1.2-.2.3-.4.1-.1.1-.3.1-.5s0-.4-.1-.5-.2-.3-.4-.3c-.2-.1-.3-.2-.5-.2-.2-.1-.4-.1-.6-.1l-.5-.1c-.2,0-.3-.1-.5-.1-.1-.1-.3-.1-.4-.2s-.2-.2-.3-.3-.2-.3-.2-.4c-.1-.2-.1-.4-.1-.6s.1-.5.2-.7.3-.4.4-.6c.2-.2.4-.3.6-.4.3-.1.5-.1.8-.1.5,0,.9.1,1.3.4s.7.7.8,1.1l-.6.3c-.1-.3-.3-.6-.6-.8-.2-.2-.6-.3-.9-.3-.2,0-.4,0-.5.1-.1,0-.3.1-.4.2s-.2.2-.3.3-.1.3-.1.5s0,.4.1.5.2.3.4.3c.2.1.3.2.5.2s.4.1.6.1.5.1.7.2.4.2.6.3.4.3.5.5c.1.3.2.5.2.8s-.1.5-.2.7-.3.4-.5.6-.5.3-.7.4c-.3.1-.6.2-.9.1-.5,0-1.1-.1-1.5-.4s-.7-.8-.9-1.3l.7-.3Zm7.9,1.4c-.2.2-.4.4-.7.5s-.5.2-.8.2c-.2,0-.4,0-.6-.1s-.3-.1-.5-.3c-.1-.1-.3-.3-.3-.4-.1-.2-.1-.4-.1-.6s0-.4.1-.6.2-.3.4-.4.3-.2.5-.3.4-.1.6-.1.4,0,.6-.1c.2,0,.4,0,.6,0h.2v0c0-.2,0-.4,0-.6s-.1-.3-.2-.4-.2-.2-.3-.3c-.2-.1-.4-.1-.6-.1-.1,0-.3,0-.4.1-.1,0-.2.1-.3.2s-.2.2-.3.3-.1.2-.2.3l-.6-.3c.1-.2.2-.4.3-.5s.3-.3.4-.4c.2-.1.3-.2.5-.2s.4-.1.6-.1.5,0,.7.1.4.2.6.3.3.3.4.5.1.5.1.7v3.1h-.7v-.5Zm-.7-1.7c-.1,0-.2,0-.3,0s-.2,0-.4,0c-.1,0-.2.1-.4.1-.1,0-.2.1-.3.2s-.2.2-.2.3c-.1.1-.1.2-.1.4c0,.1,0,.3.1.4c0,.1.1.2.2.2.1.1.2.1.3.1s.2,0,.3,0c.2,0,.3,0,.5-.1.2,0,.3-.1.5-.2.1-.1.2-.2.3-.4.1-.1.1-.3.1-.5v-.6l-.6.1Zm2.9-4.6l.8-.3v7.1h-.8v-6.8Zm6.1,5.8c-.2.4-.5.7-.8.9s-.7.3-1.1.3c-.3,0-.7-.1-1-.2s-.5-.3-.7-.5-.3-.5-.4-.8-.2-.6-.2-.9.1-.6.2-.9.2-.5.4-.8c.2-.2.4-.4.7-.5s.6-.2.9-.2.7.1,1,.2.5.3.7.6c.2.2.3.5.4.8s.1.7.1,1h-3.5c0,.2,0,.4.1.7.1.2.2.4.3.5.1.2.3.3.5.4s.4.1.7.1c.1,0,.3,0,.4-.1.1,0,.2-.1.3-.2s.2-.2.3-.3.2-.2.2-.3l.5.2Zm-.7-1.8c0-.4-.1-.7-.4-1s-.6-.4-1-.4c-.2,0-.4,0-.5.1-.2.1-.3.2-.4.3s-.2.3-.3.4c-.1.2-.1.3-.1.5h2.7v.1Zm2.1,1.5c.1.3.2.5.4.6.2.2.5.2.7.2.1,0,.3,0,.4,0s.2-.1.3-.1c.1-.1.2-.1.2-.2.1-.1.1-.2.1-.4c0-.1,0-.2-.1-.3s-.2-.2-.3-.2c-.1-.1-.2-.1-.4-.2-.1,0-.3-.1-.4-.1-.2,0-.4-.1-.5-.1-.2,0-.3-.1-.5-.2-.1-.1-.3-.2-.3-.4-.1-.2-.1-.4-.1-.6s0-.4.1-.6.2-.3.4-.4c.1-.1.3-.2.5-.3s.4-.1.6-.1c.3,0,.7.1,1,.3s.5.5.7.8l-.6.3c-.1-.2-.3-.4-.5-.5s-.4-.2-.7-.2c-.1,0-.2,0-.3,0s-.2.1-.3.1c-.1.1-.1.1-.2.2s-.1.2-.1.3s0,.2.1.3.2.2.2.2c.1.1.2.1.4.1.1,0,.3.1.4.1.2,0,.4.1.5.1.2,0,.3.1.5.2.1.1.3.2.4.4s.1.4.1.6s0,.5-.1.7-.2.3-.4.5c-.2.1-.4.2-.6.3s-.4.1-.6.1c-.4,0-.8-.1-1.1-.3s-.6-.5-.7-.9l.8-.3Zm6-5.1h3.9v.7h-3.2v2.2h2.6v.6h-2.6v2.3h3.3v.6h-4.1l.1-6.4Zm5.2,1.7h.7v.7c.1-.1.2-.3.3-.4s.2-.2.4-.3c.1-.1.3-.1.4-.1.2,0,.3,0,.5,0c.3,0,.5,0,.8.1.2.1.4.2.5.4s.3.4.3.6c.1.3.1.5.1.8v2.8h-.7v-2.9c0-.3-.1-.7-.3-.9s-.5-.3-.9-.3c-.2,0-.4,0-.6.1s-.3.1-.4.3c-.1.1-.2.2-.3.4s-.1.4-.1.5v2.9h-.7v-4.7Zm8.9,3.9c-.1.1-.2.3-.3.4s-.3.2-.4.3c-.2.1-.3.1-.5.2-.2,0-.3.1-.5.1-.3,0-.6-.1-.9-.2s-.5-.3-.7-.5-.3-.5-.4-.8-.1-.6-.1-.9s0-.6.1-.9.2-.6.4-.8.4-.4.7-.5.6-.2.9-.2c.2,0,.3,0,.5.1.2,0,.3.1.4.2s.3.2.4.3.2.2.3.4v-.8h.7v6.3h-.7l.1-2.7Zm-1.6.3c.2,0,.5,0,.7-.1s.4-.2.5-.4.2-.4.3-.6.1-.5.1-.7s0-.5-.1-.7-.1-.4-.3-.6c-.1-.2-.3-.3-.5-.4s-.5-.1-.7-.1-.5,0-.7.1-.4.2-.5.4-.2.4-.3.6-.1.5-.1.7s0,.4.1.6.2.4.3.6.3.3.5.4c.3.2.5.2.7.2Zm7-.2c-.1.3-.3.5-.6.6s-.6.2-.9.2-.5,0-.8-.1c-.2-.1-.4-.2-.6-.4s-.3-.4-.3-.6c-.1-.2-.1-.5-.1-.8v-3h.7v3.1c0,.3.1.7.3.9.3.2.6.3.9.3.2,0,.4,0,.5-.1s.3-.1.4-.3c.1-.1.2-.3.2-.4.1-.2.1-.3.1-.5v-2.9h.7v4.7h-.7l.2-.7Zm2.1-5.3c0-.1,0-.3.1-.4s.2-.1.4-.1c.1,0,.3,0,.4.1s.1.2.1.4c0,.1,0,.3-.1.4s-.2.1-.4.1c-.1,0-.3,0-.4-.1s-.1-.3-.1-.4Zm.1,1.4h.7v4.7h-.7v-4.7Zm2.3-.1h.7v.8c.1-.3.4-.5.6-.7.3-.2.6-.2.9-.2v.7c-.2,0-.5,0-.7.1-.2,0-.3.1-.5.3-.1.1-.2.3-.3.5s-.1.5-.1.7v2.6h-.7l.1-4.8Zm4.6,4.3l-1.8-4.2h.8l1.4,3.4l1.3-3.4h.8l-2.6,6.3h-.8l.9-2.1Z"/><path d="M133.9,61.8h.9l2,5.7h-.8l-.5-1.6h-2.4l-.5,1.6h-.7l2-5.7Zm1.4,3.6l-1-3-1,3h2Zm2.6.9c.1.2.2.4.4.6.2.1.4.2.7.2.1,0,.2,0,.3,0s.2-.1.3-.1.2-.1.2-.2c.1-.1.1-.2.1-.3s0-.2-.1-.3-.1-.2-.2-.2c-.1-.1-.2-.1-.3-.1s-.3-.1-.4-.1c-.2,0-.3-.1-.5-.1s-.3-.1-.4-.2-.2-.2-.3-.3c-.1-.2-.1-.3-.1-.5s0-.3.1-.5c.1-.1.2-.3.3-.4s.3-.2.4-.2c.2-.1.3-.1.5-.1.3,0,.6.1.9.3s.5.4.6.7l-.5.2c-.1-.2-.2-.4-.4-.5s-.4-.2-.6-.2c-.1,0-.2,0-.3,0s-.2.1-.2.1c-.1,0-.1.1-.2.2c0,.1-.1.2-.1.3s0,.2.1.3.1.1.2.2.2.1.3.1.3.1.4.1c.2,0,.3.1.5.1s.3.1.4.2.2.2.3.3c.1.2.1.3.1.5s0,.4-.1.6-.2.3-.3.4-.3.2-.5.2-.4.1-.6.1c-.4,0-.7-.1-1-.3s-.5-.5-.6-.8l.6-.3Zm6.4.5c-.1.2-.3.4-.5.6-.2.1-.5.2-.8.2-.2,0-.5,0-.7-.1s-.4-.2-.5-.3-.2-.3-.3-.5-.1-.4-.1-.7v-2.7h.7v2.6c0,.3.1.6.3.8s.5.3.8.3c.2,0,.3,0,.5-.1.1-.1.3-.1.3-.2.1-.1.2-.2.2-.4.1-.2.1-.3.1-.5v-2.5h.7v4.2h-.7v-.7Zm4.4.2c-.1.2-.4.4-.6.4-.2.1-.5.1-.7.1s-.4,0-.5-.1c-.2,0-.3-.1-.4-.2s-.2-.2-.3-.4-.1-.3-.1-.5s0-.4.1-.5.2-.3.3-.4.3-.2.5-.2c.2-.1.4-.1.6-.1s.4,0,.6,0s.4,0,.5,0h.1v0c0-.2,0-.3,0-.5c0-.1-.1-.3-.1-.4-.1-.1-.2-.2-.3-.3-.2-.1-.3-.1-.5-.1-.1,0-.2,0-.3.1-.1,0-.2.1-.3.1-.1.1-.2.1-.2.2-.1.1-.1.2-.2.3l-.6-.2c.1-.2.2-.3.3-.5.1-.1.2-.2.4-.3.1-.1.3-.2.5-.2s.3-.1.5-.1.4,0,.6.1.4.2.5.3.3.3.3.5c.1.2.1.4.1.6v2.7h-.7l-.1-.4Zm-.6-1.5c-.1,0-.2,0-.3,0s-.2,0-.3,0-.2,0-.3.1c-.1,0-.2.1-.3.1-.1.1-.1.1-.2.2c0,.1-.1.2-.1.3s0,.2.1.3c0,.1.1.2.2.2.1.1.2.1.2.1.1,0,.2,0,.3,0c.2,0,.3,0,.5-.1.1,0,.3-.1.4-.2s.2-.2.3-.3.1-.3.1-.4v-.5l-.6.2Zm4.1-4.2h.6l-2.3,7.4h-.6l2.3-7.4Zm1.4.1h.7v3.8l1.8-1.9h.8L155,65.2l2,2.2h-.8l-1.9-2.2v2.2h-.7v-6Zm5.8,6.2c-.3,0-.6-.1-.9-.2-.2-.1-.5-.3-.6-.5-.2-.2-.3-.4-.4-.7s-.1-.6-.1-.8c0-.3,0-.6.2-.9.1-.3.2-.5.4-.7s.4-.4.7-.5.6-.2.8-.2c.3,0,.6.1.9.2.2.1.5.3.7.5s.3.4.4.7.1.6.1.8c0,.3,0,.6-.2.9-.1.3-.2.5-.4.7s-.4.4-.7.5-.6.2-.9.2Zm0-.6c.2,0,.4,0,.6-.1s.3-.2.4-.4.2-.3.3-.5.1-.4.1-.6s0-.4-.1-.6-.1-.4-.3-.5c-.1-.1-.3-.3-.4-.3-.2-.1-.4-.1-.6-.1s-.4,0-.6.1-.3.2-.4.4-.2.3-.2.5c-.1.2-.1.4-.1.6s0,.4.1.6.1.4.3.5c.1.1.3.3.4.3.1.1.3.1.5.1v0Zm3.1-5.6l.7-.3v6.4h-.7v-6.1Zm2,0h.7v3.8l1.8-1.9h.8l-1.9,1.9l2,2.2h-.8l-1.9-2.2v2.2h-.7v-6Zm6.6,5.6c-.1.2-.4.4-.6.4-.2.1-.5.1-.7.1s-.4,0-.5-.1c-.2,0-.3-.1-.4-.2s-.2-.2-.3-.4-.1-.3-.1-.5s0-.4.1-.5.2-.3.3-.4.3-.2.5-.2c.2-.1.4-.1.5-.1.2,0,.4,0,.6,0s.4,0,.5,0h.1v0c0-.2,0-.3,0-.5c0-.1-.1-.3-.1-.4-.1-.1-.2-.2-.3-.2-.2-.1-.3-.1-.5-.1-.1,0-.2,0-.3.1-.1,0-.2.1-.3.1-.1.1-.2.1-.2.2-.1.1-.1.2-.2.3l-.6-.2c.1-.2.2-.3.3-.5.1-.1.2-.2.4-.3.1-.1.3-.2.5-.2s.3-.1.5-.1.4,0,.6.1.4.2.5.3.3.3.3.5c.1.2.1.4.1.6v2.7h-.7v-.5Zm-.6-1.5c-.1,0-.2,0-.3,0s-.2,0-.3,0-.2,0-.3.1c-.1,0-.2.1-.3.1-.1.1-.1.1-.2.2c0,.1-.1.2-.1.3s0,.2.1.3c0,.1.1.2.2.2.1.1.2.1.2.1.1,0,.2,0,.3,0c.2,0,.3,0,.5-.1.1,0,.3-.1.4-.2s.2-.2.3-.3.1-.3.1-.4v-.5h-.6v.2Zm4.3,2c-.2.1-.4.1-.6.1-.3,0-.6-.1-.8-.3s-.3-.5-.3-.8v-2.6h-.6v-.6h.6v-.8l.7-.3v1.1h1v.6h-1v2.5c0,.1,0,.2,0,.2c0,.1,0,.1.1.2c0,.1.1.1.2.1s.2,0,.3,0c.2,0,.3,0,.5-.1l-.1.7Zm3.4-.5c-.1.2-.4.4-.6.4-.2.1-.5.2-.7.2s-.4,0-.5-.1c-.2,0-.3-.1-.4-.2s-.2-.2-.3-.4-.1-.3-.1-.5s0-.4.1-.5.2-.3.3-.4.3-.2.5-.2c.2-.1.4-.1.5-.1.2,0,.4,0,.6,0s.4,0,.5,0h.1v0c0-.2,0-.3,0-.5c0-.1-.1-.3-.1-.4-.1-.1-.2-.2-.3-.2-.2-.1-.3-.1-.5-.1-.1,0-.2,0-.3.1-.1,0-.2.1-.3.1-.1.1-.2.1-.2.2-.1.1-.1.2-.2.3l-.6-.2c.1-.2.2-.3.3-.5.1-.1.2-.2.4-.3.1-.1.3-.2.5-.2s.3-.1.5-.1.4,0,.6.1.4.2.5.3.3.3.3.5c.1.2.1.4.1.6v2.7h-.7v-.6Zm-.6-1.5c-.1,0-.2,0-.3,0s-.2,0-.3,0-.2,0-.3.1c-.1,0-.2.1-.3.1-.1.1-.1.1-.2.2c0,.1-.1.2-.1.3s0,.2.1.3c0,.1.1.2.2.2.1.1.2.1.2.1.1,0,.2,0,.3,0c.2,0,.3,0,.5-.1.1,0,.3-.1.4-.2s.2-.2.3-.3.1-.3.1-.4v-.5h-.6v.2Zm3.9-.5h1.7v.6h-1.7v-.6Zm4.5-3.2h.7v5.7h-.7v-5.7Zm2.4,4c.1.4.3.7.6.9s.6.3.9.3c.2,0,.3,0,.5-.1.1-.1.3-.1.4-.2s.2-.2.3-.3.1-.3.1-.4c0-.2,0-.3-.1-.5-.1-.1-.2-.2-.3-.3s-.3-.1-.5-.2c-.2,0-.3-.1-.5-.1l-.4-.1c-.1,0-.3-.1-.4-.1s-.3-.1-.4-.2-.2-.2-.3-.3-.2-.2-.2-.4c-.1-.2-.1-.3-.1-.5s0-.4.1-.6.2-.4.4-.5.4-.3.6-.3c.2-.1.5-.1.7-.1.4,0,.8.1,1.1.3.3.3.6.6.8,1l-.6.3c-.1-.3-.3-.6-.5-.8s-.5-.3-.8-.3c-.2,0-.3,0-.5.1-.1,0-.3.1-.4.2s-.2.2-.2.3c-.1.1-.1.3-.1.4c0,.2,0,.3.1.5.1.1.2.2.3.3s.3.1.5.2c.2,0,.3.1.5.1s.4.1.6.2.4.1.6.2.3.3.4.4c.1.2.2.5.2.7s-.1.5-.2.7-.2.4-.4.5c-.2.2-.4.3-.6.4s-.5.1-.8.1c-.5,0-1-.1-1.4-.4s-.7-.7-.8-1.2l.8-.2Zm5.8-3.5h-1.7v-.6h4v.6h-1.7v5.2h-.7l.1-5.2Zm5.9,6.4c-.4-.5-.8-1.1-1-1.7s-.4-1.3-.4-2s.1-1.3.4-2c.3-.6.6-1.2,1-1.7h.7c-.4.5-.8,1.1-1,1.7s-.4,1.3-.4,2s.1,1.3.4,2c.2.6.6,1.2,1,1.7h-.7Zm2.5-3.7h-1.5v-.6h1.5v-1.6h.6v1.6h1.5v.6h-1.5v1.6h-.6v-1.6Zm5.2,2.6c-.3,0-.5,0-.8-.1-.2-.1-.4-.2-.6-.3s-.3-.3-.4-.5-.2-.4-.3-.6-.1-.5-.1-.7s0-.5,0-.7s0-.5.1-.7c0-.2.1-.4.2-.7.1-.2.2-.4.3-.6s.3-.3.4-.5c.2-.1.4-.2.6-.3s.5-.1.7-.1c.4,0,.7.1,1,.2s.5.4.7.6c.2.3.3.6.4.9s.1.7.1,1c0,.2,0,.5,0,.7s-.1.5-.1.7c-.1.2-.2.4-.3.6s-.2.4-.4.5c-.2.2-.4.3-.6.4-.4.1-.6.2-.9.2Zm0-.6c.2,0,.4,0,.6-.1s.3-.2.4-.3.2-.3.3-.4c.1-.2.1-.4.1-.5c0-.2.1-.4.1-.6s0-.4,0-.6s0-.3,0-.5-.1-.3-.1-.5-.1-.3-.2-.5c-.1-.1-.2-.3-.3-.4s-.2-.2-.4-.3-.3-.1-.5-.1c-.3,0-.5.1-.8.2-.2.1-.4.3-.5.5s-.2.5-.2.7c0,.3-.1.5-.1.8c0,.2,0,.4,0,.6s0,.4.1.6c0,.2.1.3.2.5s.2.3.3.4.3.2.4.3c.2.2.4.2.6.2Zm3.7-1c.1.6.7,1.1,1.3,1c.2,0,.4,0,.5-.1.2-.1.3-.2.4-.3s.2-.3.2-.4c.1-.2.1-.4.1-.5c0-.2,0-.4-.1-.5c0-.2-.1-.3-.2-.4s-.2-.2-.4-.3-.3-.1-.5-.1-.5,0-.7.1-.4.2-.6.4h-.3v-3.1h3.2v.6h-2.6v1.7c.2-.1.3-.2.5-.3s.4-.1.6-.1c.3,0,.5,0,.7.1s.4.2.6.4.3.4.4.6.1.5.1.7c0,.3,0,.5-.1.8-.1.2-.2.4-.4.6s-.4.3-.6.4-.5.1-.8.1c-.2,0-.4,0-.6-.1-.2,0-.4-.1-.6-.2s-.3-.3-.4-.4c-.1-.2-.2-.4-.2-.6l.5-.1Zm5-2.2c-.1,0-.1,0-.2,0s-.1-.1-.2-.1c0,0-.1-.1-.1-.2s0-.1,0-.2s0-.3.1-.4.2-.1.4-.1c.1,0,.1,0,.2,0s.1.1.2.1c0,0,.1.1.1.2s0,.1,0,.2s0,.1,0,.2-.1.1-.1.2c0,0-.1.1-.2.1s-.2,0-.2,0v0Zm-.5,2.5c0-.1,0-.3.1-.4s.2-.1.4-.1c.1,0,.1,0,.2,0s.1.1.2.1c0,0,.1.1.1.2s0,.1,0,.2s0,.1,0,.2-.1.1-.1.2c0,0-.1.1-.2.1s-.1,0-.2,0-.3,0-.4-.1-.1-.3-.1-.4v0Zm2.6-.4c0,.2.1.3.2.4s.2.3.3.4.2.2.4.2c.2.1.3.1.5.1s.3,0,.5-.1c.2,0,.3-.1.4-.2s.2-.2.3-.3c.1-.2.1-.3.1-.5s0-.4-.1-.6c-.1-.1-.2-.3-.3-.3-.2-.1-.3-.1-.5-.1s-.4,0-.6,0h-.1v-.6h.1c.2,0,.4,0,.5,0c.2,0,.3-.1.5-.1.1-.1.2-.2.3-.3.1-.2.1-.4.1-.5s0-.3-.1-.4c0-.1-.1-.2-.2-.3s-.2-.1-.3-.2c-.1,0-.3-.1-.4-.1-.3,0-.6.1-.9.3-.2.2-.4.5-.5.8l-.5-.2c.1-.2.2-.4.3-.6s.3-.3.4-.4c.2-.1.3-.2.5-.3s.4-.1.6-.1.4,0,.6.1.4.2.5.3c.2.1.3.3.4.5s.1.4.1.6c0,.3-.1.6-.3.8s-.4.4-.7.5c.3.1.6.2.8.5s.3.6.3.9-.1.5-.2.8c-.1.2-.3.4-.5.5s-.4.2-.6.3-.5.1-.7.1-.4,0-.6-.1-.4-.2-.6-.3-.3-.3-.4-.5-.2-.4-.3-.6l.7-.4Zm6.6,1.7c-.3,0-.5,0-.8-.1-.2-.1-.4-.2-.6-.3s-.3-.3-.4-.5-.2-.4-.3-.6-.1-.5-.1-.7s0-.5,0-.7s0-.5.1-.7c0-.2.1-.4.2-.7.1-.2.2-.4.3-.6s.3-.3.4-.5c.2-.1.4-.2.6-.3s.5-.1.7-.1c.4,0,.7.1,1,.2s.5.4.7.6c.2.3.3.6.4.9s.1.7.1,1c0,.2,0,.5,0,.7s-.1.5-.1.7c-.1.2-.2.4-.3.6s-.2.4-.4.5c-.2.2-.4.3-.6.4-.3.1-.6.2-.9.2Zm.1-.6c.2,0,.4,0,.6-.1s.3-.2.4-.3.2-.3.3-.4c.1-.2.1-.4.1-.5c0-.2.1-.4.1-.6s0-.4,0-.6s0-.3,0-.5-.1-.3-.1-.5-.1-.3-.2-.5c-.1-.1-.2-.3-.3-.4s-.2-.2-.4-.3-.3-.1-.5-.1c-.3,0-.5.1-.8.2-.2.1-.4.3-.5.5s-.2.5-.2.7c0,.3-.1.5-.1.8c0,.2,0,.4,0,.6s0,.4.1.6c0,.2.1.3.2.5s.2.3.3.4.3.2.4.3c.2.2.4.2.6.2v0Zm2.7,1.7c.4-.5.8-1.1,1-1.7s.3-1.3.3-2-.1-1.3-.3-1.9-.6-1.2-1-1.7h.7c.4.5.8,1.1,1,1.7s.3,1.3.3,2-.1,1.3-.3,2c-.2.6-.6,1.2-1,1.7l-.7-.1Z"/><path d="M133.3,37.5h1v-6.5h-.9l-1.5,1v.9l1.4-.9v5.5Zm2.1-1.4h3.2v1.4h1v-1.4h.9v-.8h-.9v-4.3h-1.3l-2.9,4.6v.5Zm1.1-.8l2.1-3.5v3.5h-2.1Zm6.8,2.2h.9v-5.2l3.1,5.2h1.1v-6.5h-.9v5l-3-5h-1.3v6.5h.1Zm8.4,0c1.3,0,2.4-1,2.4-2.3c0-.1,0-.1,0-.2.1-1.3-.9-2.4-2.2-2.4-.1,0-.1,0-.2,0-1.3,0-2.4,1-2.4,2.3c0,.1,0,.1,0,.2-.1,1.3.9,2.4,2.1,2.5.2-.1.3-.1.3-.1v0Zm.1-.7c-1,0-1.4-.8-1.4-1.7s.4-1.7,1.4-1.7s1.4.8,1.4,1.7-.4,1.7-1.4,1.7v0Zm4.5.7h1.1l1.7-4.7h-.9l-1.3,3.8-1.3-3.8h-1l1.7,4.7Zm5,0h4.5v-.8h-3l1.7-1.5c.7-.6,1.2-1.4,1.3-2.4c0-1-.8-1.8-1.8-1.8-.1,0-.1,0-.2,0-1.1,0-2,.7-2.2,1.8l.8.3c.2-.7.6-1.3,1.4-1.3.5,0,1,.3,1,.8c0,.1,0,.1,0,.2-.1.7-.4,1.4-1,1.9l-2.5,2.4v.4Zm5.5-1.8c.3,1.1,1.3,1.9,2.5,1.8c1.8,0,2.6-1.5,2.6-3.2s-.6-3.5-2.6-3.5c-1.8,0-2.7,1.5-2.7,3.1c0,.7.1,1.3.2,1.8v0Zm2.5,1c-1.3,0-1.7-1.2-1.7-2.3s.1-2.7,1.6-2.7c1.3,0,1.6,1.3,1.6,2.3c0,1.2,0,2.7-1.5,2.7v0Zm3.3.8h4.5v-.8h-3l1.7-1.5c.7-.6,1.2-1.4,1.3-2.4c0-1-.8-1.8-1.8-1.8-.1,0-.1,0-.2,0-1.1,0-2,.7-2.2,1.8l.8.3c.2-.7.6-1.3,1.4-1.3.5,0,1,.3,1,.8c0,.1,0,.1,0,.2-.1.7-.4,1.4-1,1.9l-2.5,2.4v.4Zm5.2-1.4h3.2v1.4h1v-1.4h.9v-.8h-.9v-4.3h-1.3l-2.9,4.6v.5Zm1.2-.8l2.1-3.5v3.5h-2.1Zm8.7,3.5h.7v-8.4h-.7v8.4Zm3.9-2.6c.4.9,1.3,1.4,2.2,1.3c1.9,0,2.5-1.7,2.5-3.3c0-1.7-.4-3.3-2.4-3.3-1.2-.1-2.2.8-2.3,1.9c0,.1,0,.2,0,.2c0,1.1.8,2.1,1.9,2.1.1,0,.1,0,.2,0c.7,0,1.3-.3,1.6-.8c0,1-.2,2.4-1.5,2.4-.6,0-1.2-.3-1.4-.9l-.8.4Zm2.2-1.7c-.7,0-1.3-.5-1.3-1.2c0-.1,0-.1,0-.2-.1-.7.4-1.3,1.1-1.4.1,0,.1,0,.2,0c.7,0,1.4.6,1.4,1.3c0,.1,0,.1,0,.2c0,.7-.5,1.3-1.2,1.3-.1,0-.1,0-.2,0v0Zm3.7-1.8c0,.4.3.6.6.6c0,0,0,0,0,0c.4,0,.6-.3.7-.6c0,0,0,0,0,0c0-.4-.3-.7-.7-.7-.3.1-.6.4-.6.7c0,0,0,0,0,0Zm0,3.3c0,.4.3.6.6.6c0,0,0,0,0,0c.4,0,.6-.3.7-.6c0,0,0,0,0,0c0-.4-.3-.7-.7-.6-.3,0-.6.3-.6.6c0,0,0,0,0,0Zm2.7-.3c.3,1.1,1.3,1.8,2.5,1.8c1.8,0,2.6-1.5,2.6-3.2s-.6-3.5-2.6-3.5c-1.8,0-2.7,1.5-2.7,3.1c0,.7.1,1.3.2,1.8Zm2.5,1c-1.3,0-1.7-1.2-1.7-2.3s.1-2.7,1.6-2.7c1.3,0,1.6,1.3,1.6,2.3.1,1.2,0,2.7-1.5,2.7v0Zm3.9-1c.3,1.1,1.3,1.9,2.5,1.8c1.8,0,2.6-1.5,2.6-3.2s-.6-3.5-2.6-3.5c-1.8,0-2.7,1.5-2.7,3.1c0,.7,0,1.3.2,1.8Zm2.5,1c-1.3,0-1.7-1.2-1.7-2.3s.1-2.7,1.6-2.7c1.3,0,1.6,1.3,1.6,2.3c0,1.2-.1,2.7-1.5,2.7v0Zm8.2.8h.9v-3.1c0-.9-.7-1.7-1.6-1.7-.1,0-.2,0-.3,0-.8-.1-1.6.4-1.9,1.1l.8.3c.2-.5.6-.7,1.1-.7.9,0,1,.5,1,1.3h-.6c-1.1,0-2.4.2-2.4,1.5c0,.8.6,1.4,1.4,1.4.1,0,.1,0,.2,0c.6,0,1.1-.2,1.4-.7v.6Zm0-2.2v.5c-.1.6-.6,1.1-1.2,1c0,0,0,0,0,0-.5,0-.8-.2-.8-.7c0-.8.9-.9,1.5-.9l.5.1Zm2.2,2.2h.9v-2.8c-.1-.6.4-1.1,1-1.2c0,0,.1,0,.1,0c.6,0,1,.4,1,1.1v2.9h.9v-2.8c-.1-.6.4-1.1.9-1.2c0,0,.1,0,.1,0c.7,0,1,.4,1,1.1v2.9h.9v-3c.1-.9-.5-1.7-1.4-1.8-.1,0-.2,0-.2,0-.6,0-1.3.3-1.6.9-.3-.6-.8-.9-1.5-.9-.6,0-1.1.3-1.4.8v-.7h-.9v4.7h.2Z"/><g transform="translate(5.769 11.126)"><g transform="translate(9.265 4.276)"><g transform="translate(0 2.851)"><path d="M68.7,16.1h27.6c2.2,0,4,1.8,4,4v24.1c0,2.2-1.8,4-4,4h-27.6c-2.2,0-4-1.8-4-4v-24.1c0-2.2,1.8-4,4-4Z" fill="#fff"/><path d="M68.7,16.6h27.6c1.9,0,3.5,1.6,3.5,3.5v24.1c0,1.9-1.6,3.5-3.5,3.5h-27.6c-1.9,0-3.5-1.6-3.5-3.5v-24.1c0-1.9,1.6-3.5,3.5-3.5Z" fill="none" stroke="#000"/></g><line x1="65.1" y1="25" x2="100" y2="25" fill="none" stroke="#000"/><g transform="translate(7.127 0)"><path d="M66.2,16.1v0c.8,0,1.4.6,1.4,1.4v2.9c0,.8-.6,1.4-1.4,1.4v0c-.8,0-1.4-.6-1.4-1.4v-2.9c-.1-.7.6-1.4,1.4-1.4Z" fill="#fff"/><path d="M66.2,16.6v0c.5,0,.9.4.9.9v2.9c0,.5-.4.9-.9.9v0c-.5,0-.9-.4-.9-.9v-2.9c-.1-.5.4-.9.9-.9Z" fill="none" stroke="#000"/></g><path d="M65.4,25.4h34.2v0v20.9c0,2.2-1.8,4-4,4h-26.2c-2.2,0-4-1.8-4-4v-20.9v0Z" fill="#f5f4fd"/><g transform="translate(24.943 0)"><path d="M66.2,16.1v0c.8,0,1.4.6,1.4,1.4v2.9c0,.8-.6,1.4-1.4,1.4v0c-.8,0-1.4-.6-1.4-1.4v-2.9c-.1-.7.6-1.4,1.4-1.4Z" fill="#fff"/><path d="M66.2,16.6v0c.5,0,.9.4.9.9v2.9c0,.5-.4.9-.9.9v0c-.5,0-.9-.4-.9-.9v-2.9c-.1-.5.4-.9.9-.9Z" fill="none" stroke="#000"/></g><g transform="translate(13.17 17.164)"><g><line x1="64.7" y1="20.1" x2="68.1" y2="22.9" fill="none" stroke="#000" stroke-linecap="round"/><line x1="74" y1="16.1" x2="68.1" y2="22.9" fill="none" stroke="#000" stroke-linecap="round"/></g></g></g><g><circle r="1.4" transform="translate(70.4 43.2)" fill="#8ad4f5"/><circle r="1.1" transform="translate(119.3 30.7)" fill="#ecd881"/><circle r="0.7" transform="translate(120.3 44.6)" fill="#93d8f7"/><circle r="0.7" transform="translate(81.1 61)" fill="#ee8e73"/><circle r="1.1" transform="translate(67.9 32.2)" fill="#e99075"/><circle r="0.7" transform="translate(76.1 16.8)" fill="#d7dcb1"/><circle r="1.1" transform="translate(65.8 51.4)" fill="#f7d75a"/></g></g></g><path d="M1454.3,525.8l2.1,4.2h-4.2l2.1-4.2Z" fill="#6d8ee6"/><path d="M1406.8,569.9l-2.1-2.1h4.2l-2.1,2.1Z" fill="#f09948"/><rect width="3.4" height="3.4" rx="0" ry="0" transform="translate(1437.4 518.7)" fill="#7bc9f3"/><g transform="translate(1374.8 554.999)"><line x1="64.7" y1="16.1" x2="66" y2="17.4" fill="none" stroke="#6b8de8" stroke-linecap="round"/><line x1="66" y1="16.1" x2="64.7" y2="17.4" fill="none" stroke="#6b8de8" stroke-linecap="round"/></g></g></g></g></g><g id="e2hpNW6OF0a72_ts" transform="translate(85.148727,560.399994) scale(0,0)"><g transform="translate(-145.148727,-479.399994)"><path d="M145.9,485.8c-1.2-.2-2.4-.6-3.5-1.2-1.1-.7-1.8-1.8-1.8-3.1-.1-2.6,2.8-4.4,5.2-4.1c1,.1,1.9.7,2.3,1.6.4.7.2,1.6-.5,2-.2.1-.3.2-.5.2-.6.1-1.2-.2-1.6-.6-.7-.7-1-1.8-.8-2.8.4-2.5,2.4-4.5,5-4.8" fill="none" stroke="#7e57ff" stroke-linecap="round" stroke-miterlimit="10"/></g></g><g id="e2hpNW6OF0a74_ts" transform="translate(124.707657,603.653442) scale(0,0)"><g transform="translate(-184.707657,-522.653442)"><path d="M185.1,518.7c.8.2,1.6.6,2.2,1.2s1,1.4.9,2.2c-.2,1.7-2.3,2.6-3.9,2.1-.6-.2-1.2-.7-1.4-1.3-.2-.5,0-1.1.5-1.3.1,0,.2-.1.4-.1.4,0,.8.2,1,.6.4.6.5,1.3.2,1.9-.5,1.7-2.1,2.7-3.8,2.6" fill="none" stroke="#ff5757" stroke-linecap="round" stroke-miterlimit="10"/></g></g><g id="e2hpNW6OF0a76_ts" transform="translate(70.78643,547.20105) scale(0,0)"><g transform="translate(-127.78643,-469.20105)"><g transform="translate(-29.418-72.855)"><path d="M160.4,553.2c-.4,0-.9-.1-1.2-.4l-.2-.1c-.5-.4-1.2-.6-1.8-.6-.7,0-1.3.2-1.8.6l-.2.1c-.4.3-.8.4-1.2.4-1,0-1.8-.7-2-1.6v-.1c-.3-1.3-1.5-2.3-2.9-2.4h-.1c-.7,0-1.4-.4-1.7-1-.4-.6-.4-1.4,0-2c.7-1.2.4-2.8-.7-3.7v0c-.5-.5-.8-1.2-.7-1.9s.6-1.3,1.3-1.6h.1c1.3-.5,2.1-1.9,1.9-3.3v0c-.1-.6.1-1.2.5-1.6.4-.5,1-.7,1.6-.7.2,0,.4,0,.6.1l.2.1c.3.1.6.1.9.1c0,0,0,0,0,0c1,0,2-.5,2.6-1.4l.1-.2c.4-.6,1-.9,1.7-.9s1.3.4,1.7.9l.1.2c.6.9,1.5,1.4,2.6,1.4.3,0,.6,0,.9-.1l.2-.1c.2-.1.4-.1.6-.1.6,0,1.2.3,1.6.7.4.5.6,1,.5,1.6v0c-.2,1.4.6,2.7,1.9,3.3h.1c.7.3,1.1.9,1.3,1.6s-.1,1.4-.7,1.9v0c-1.1.9-1.3,2.5-.7,3.7.3.6.3,1.4,0,2-.4.6-1,1-1.7,1h-.1c-1.4.1-2.6,1-2.9,2.4v.1c-.6,1-1.4,1.6-2.4,1.6Z" fill="#00c52b"/></g><path d="M127.7,458.6c-.5,0-1,.3-1.3.7l-.1.2c-.7,1-1.8,1.6-3,1.6-.4,0-.7-.1-1.1-.2l-.2-.1c-.2,0-.3-.1-.5-.1-.4,0-.9.2-1.2.5s-.4.8-.4,1.2v0c.2,1.6-.7,3.2-2.2,3.8h-.1c-.5.2-.9.6-1,1.2-.1.5.1,1.1.5,1.4v0c1.2,1.1,1.5,2.9.8,4.3-.3.5-.3,1,0,1.5s.7.8,1.3.8h.1c1.6.1,3,1.2,3.3,2.8v.1c.2.8.9,1.2,1.5,1.2.3,0,.7-.1.9-.3l.2-.1c.6-.5,1.4-.7,2.1-.7.8,0,1.5.2,2.1.7l.2.1c.3.2.6.3.9.3.6,0,1.3-.4,1.5-1.2v-.1c.4-1.6,1.7-2.7,3.3-2.8h.1c.5,0,1-.3,1.3-.8s.3-1,0-1.5c-.8-1.5-.5-3.2.8-4.3v0c.4-.4.6-.9.5-1.4s-.4-1-1-1.2h-.1c-1.5-.6-2.4-2.2-2.2-3.8v0c.1-.5-.1-.9-.4-1.2s-.7-.5-1.2-.5c-.2,0-.3,0-.5.1l-.2.1c-.3.1-.7.2-1.1.2-1.2,0-2.3-.6-3-1.6l-.1-.2c.6-.4.1-.7-.5-.7m0-1c.8,0,1.6.4,2.2,1.2l.1.2c.6,1,1.8,1.4,2.9,1.1l.2-.1c1.8-.6,3.6.9,3.3,2.8v0c-.2,1.2.5,2.3,1.6,2.7h.1c1.8.7,2.2,3,.7,4.3v0c-.9.8-1.1,2.1-.6,3.1v0c.9,1.7-.3,3.7-2.2,3.8h-.1c-1.2,0-2.1.9-2.4,2v.1c-.4,1.8-2.6,2.6-4,1.5l-.2-.1c-.9-.7-2.2-.7-3.1,0l-.2.1c-1.5,1.1-3.6.3-4-1.5v-.1c-.3-1.1-1.2-2-2.4-2h-.1c-1.9-.1-3-2.1-2.2-3.8.6-1,.3-2.3-.6-3.1v0c-1.4-1.3-1-3.6.7-4.3h.1c1.1-.4,1.7-1.6,1.6-2.7v0c-.3-1.9,1.5-3.3,3.3-2.8l.2.1c1.1.3,2.3-.1,2.9-1.1l.1-.2c.5-.8,1.3-1.2,2.1-1.2Z" fill="#078222"/><line x1="124" y1="469.6" x2="126.7" y2="471.8" fill="none" stroke="#fff" stroke-width="2" stroke-linecap="round"/><line x1="131.5" y1="466.4" x2="126.7" y2="471.8" fill="none" stroke="#fff" stroke-width="2" stroke-linecap="round"/></g></g><g><g transform="translate(554.872 243.861)"><g transform="translate(5 10)"><g transform="translate(-559.87-253.86)"><path d="M630.6,270h173c3.3,0,6,2.7,6,6v76c0,3.3-2.7,6-6,6h-173c-3.3,0-6-2.7-6-6v-76c0-3.3,2.7-6,6-6Z" filter="url(#e2hpNW6OF0a94-filter)" fill="#fff"/></g></g><path d="M96.1,49c.3.1.7.2,1,.2c1,.1,2-.6,2.1-1.7c0-.2,0-.3,0-.5v-5h-1.1v5c0,.8-.3,1.3-1.1,1.3-.3,0-.6-.1-.9-.2v.9Zm8.2.1h1v-5.2h-1v3.1c0,.7-.5,1.3-1.2,1.3-.1,0-.1,0-.2,0-.6.1-1.1-.4-1.2-1c0-.1,0-.2,0-.3v-3.2h-1v3.3c-.1,1,.6,1.9,1.5,2c.1,0,.2,0,.3,0c.7.1,1.4-.3,1.7-.9v.9h.1Zm2.6,0h1v-3.1c-.1-.7.5-1.3,1.2-1.3.1,0,.1,0,.2,0c.8,0,1.2.5,1.2,1.3v3.2h1v-3.2c0-1.2-.6-2.1-1.9-2.1-.7-.1-1.4.3-1.7.9v-.8h-1v5.1Zm9.7-1.5c-.3.5-.8.9-1.4.8-.8,0-1.5-.6-1.5-1.5c0-.1,0-.1,0-.2h3.9c0-1.6-.6-2.9-2.4-2.9-1.4,0-2.5,1.1-2.5,2.5c0,.1,0,.1,0,.2-.1,1.4.9,2.6,2.3,2.7.1,0,.2,0,.3,0c.9.1,1.8-.4,2.2-1.3l-.9-.3ZM113.7,46c0-.8.7-1.4,1.5-1.4s1.3.6,1.3,1.4h-2.8Zm6.4,3.1h5v-.9h-3.3l1.9-1.7c.8-.6,1.3-1.6,1.4-2.6c0-1.1-.9-2-2-2-.1,0-.2,0-.2,0-1.2,0-2.2.8-2.5,2l.9.4c.2-.8.7-1.4,1.6-1.4.6-.1,1.1.4,1.1.9c0,.1,0,.2,0,.2-.1.8-.4,1.5-1.1,2.1l-2.8,2.7v.3Zm6.1-1.9c.3,1.2,1.5,2.1,2.7,2c2,0,2.9-1.7,2.9-3.5c0-1.9-.7-3.8-2.9-3.8-2,0-2.9,1.6-2.9,3.5c0,.6.1,1.2.2,1.8Zm2.8,1.1c-1.5,0-1.8-1.4-1.8-2.6c0-1.3.2-3,1.8-3c1.4,0,1.8,1.4,1.8,2.6-.1,1.3-.2,3-1.8,3Zm3.7.8h5v-.9h-3.3l1.9-1.7c.8-.6,1.3-1.6,1.4-2.6c0-1.1-.9-2-2-2-.1,0-.2,0-.2,0-1.2,0-2.2.8-2.5,2l.9.4c.2-.8.7-1.4,1.6-1.4.6-.1,1.1.4,1.1.9c0,.1,0,.2,0,.2-.1.8-.4,1.5-1.1,2.1l-2.8,2.7v.3Zm5.8-1.5h3.6v1.6h1.1v-1.6h1v-.9h-1v-4.7h-1.4l-3.2,5.2-.1.4Zm1.2-.9l2.3-3.9v3.9h-2.3Z"/><path d="M99.7,59.1h32c2.2,0,4,1.8,4,4v32c0,2.2-1.8,4-4,4h-32c-2.2,0-4-1.8-4-4v-32c0-2.2,1.8-4,4-4Z" fill="none" stroke="#8760cf"/><g transform="translate(78 43)"><path d="M68.7,16.1h32c2.2,0,4,1.8,4,4v32c0,2.2-1.8,4-4,4h-32c-2.2,0-4-1.8-4-4v-32c0-2.2,1.8-4,4-4Z" fill="#fff"/><path d="M68.7,16.6h32c1.9,0,3.5,1.6,3.5,3.5v32c0,1.9-1.6,3.5-3.5,3.5h-32c-1.9,0-3.5-1.6-3.5-3.5v-32c0-1.9,1.6-3.5,3.5-3.5Z" fill="none" stroke="#8760cf"/></g><g transform="translate(124 43)"><path d="M68.7,16.1h32c2.2,0,4,1.8,4,4v32c0,2.2-1.8,4-4,4h-32c-2.2,0-4-1.8-4-4v-32c0-2.2,1.8-4,4-4Z" fill="#fff"/><path d="M68.7,16.6h32c1.9,0,3.5,1.6,3.5,3.5v32c0,1.9-1.6,3.5-3.5,3.5h-32c-1.9,0-3.5-1.6-3.5-3.5v-32c0-1.9,1.6-3.5,3.5-3.5Z" fill="none" stroke="#8760cf"/></g><path d="M112.2,77.1h1.2v-7.9h-1.1l-1.8,1.2v1.1l1.7-1.1v6.7Zm2.5-1.7h3.9v1.7h1.2v-1.7h1.1v-1h-1.1v-5.2h-1.6l-3.5,5.7v.5Zm1.4-.9l2.5-4.3v4.3h-2.5Zm-10,14.6h1v-5.7l2.3,5.7h.5l2.3-5.7v5.7h1.1v-7.1h-1.5l-2.1,5.3-2.1-5.3h-1.5v7.1Zm10.9.1c1.4,0,2.6-1.1,2.7-2.5c0-.1,0-.1,0-.2.1-1.4-1-2.6-2.4-2.7-.1,0-.1,0-.2,0-1.4,0-2.6,1.1-2.7,2.5c0,.1,0,.1,0,.2-.1,1.4,1,2.6,2.4,2.7c0,0,.1,0,.2,0Zm0-.8c-1.1,0-1.6-.8-1.6-1.9c0-1,.4-1.9,1.6-1.9c1.1,0,1.6.9,1.6,1.9s-.5,1.9-1.6,1.9v0Zm3.8.7h1v-3.1c-.1-.7.5-1.3,1.2-1.3.1,0,.1,0,.2,0c.8,0,1.2.5,1.2,1.3v3.2h1v-3.2c0-1.2-.6-2.1-1.9-2.1-.7-.1-1.4.3-1.7.9v-.8h-1v5.1Z"/><path d="M159.2,77.1h1.2v-7.9h-1.1l-1.8,1.2v1.1l1.7-1.1v6.7Zm3.1-1.7c.3,1.2,1.4,2,2.6,1.8c1.5.1,2.7-1,2.8-2.5c0-.1,0-.2,0-.3.1-1.3-.9-2.5-2.2-2.6-.1,0-.2,0-.2,0-.6,0-1.2.2-1.7.6v-2.3h3.6v-1h-4.6v4.3h.6c.4-.5,1-.8,1.7-.7.9,0,1.5.7,1.6,1.5c0,.1,0,.1,0,.2.1.9-.5,1.6-1.4,1.7-.1,0-.1,0-.2,0-.8.1-1.5-.5-1.6-1.3l-1,.6Zm-5.5,13.7h1.1v-6.3h2v-.8h-5.2v.9h2v6.2h.1Zm6.5,0h1v-5.2h-1v3.1c0,.7-.5,1.3-1.2,1.3-.1,0-.1,0-.2,0-.6.1-1.1-.4-1.2-1c0-.1,0-.2,0-.3v-3.2h-1v3.3c-.1,1,.6,1.9,1.5,2c.1,0,.2,0,.3,0c.7.1,1.4-.3,1.7-.9v.9h.1Zm6.2-1.5c-.3.5-.8.9-1.4.8-.8,0-1.5-.6-1.5-1.5c0-.1,0-.1,0-.2h3.9c0-1.6-.6-2.9-2.4-2.9-1.4,0-2.5,1.1-2.5,2.5c0,.1,0,.1,0,.2-.1,1.4.9,2.6,2.3,2.7.1,0,.2,0,.3,0c.9.1,1.8-.4,2.2-1.3l-.9-.3ZM166.6,86c0-.8.7-1.4,1.5-1.4.9,0,1.3.6,1.3,1.4h-2.8Z"/><path d="M205.1,77.1h1.2v-7.9h-1.1l-1.8,1.2v1.1l1.7-1.1v6.7Zm8.6-6.4c-.4-1-1.4-1.6-2.5-1.5-2.4,0-3.2,2.3-3.2,4.3s.6,3.8,3,3.8c1.4.1,2.7-.9,2.8-2.3c0-.1,0-.2,0-.3.1-1.4-1-2.5-2.3-2.6-.1,0-.1,0-.2,0-.8,0-1.6.3-2,1c0-1.2.4-2.9,1.9-2.9.7,0,1.3.4,1.5,1l1-.5ZM211,76.3c-.9,0-1.6-.7-1.7-1.6c0-.1,0-.1,0-.2c0-.9.7-1.6,1.6-1.6c0,0,.1,0,.1,0c.9,0,1.6.7,1.6,1.5c0,.1,0,.1,0,.2.1.8-.5,1.6-1.4,1.7c0,0-.1,0-.2,0v0ZM200.4,89.1h1l1.6-5.4l1.6,5.4h1.1l1.9-7.1h-1l-1.4,5.5-1.6-5.5h-.9l-1.6,5.5-1.4-5.5h-1.1l1.8,7.1Zm11.1-1.5c-.3.5-.8.9-1.4.8-.8,0-1.5-.6-1.5-1.5c0-.1,0-.1,0-.2h3.9c0-1.6-.6-2.9-2.4-2.9-1.4,0-2.5,1.1-2.5,2.5c0,.1,0,.1,0,.2-.1,1.4.9,2.6,2.3,2.7.1,0,.2,0,.3,0c.9.1,1.8-.4,2.2-1.3l-.9-.3ZM208.6,86c0-.8.7-1.4,1.5-1.4s1.3.6,1.3,1.4h-2.8Zm8.9,3.1h1v-7.7h-1v3.3c-.4-.6-1.1-1-1.8-.9-1.4,0-2.5,1.2-2.4,2.6c0,.1,0,.1,0,.2c0,1.5.8,2.7,2.3,2.7.7,0,1.4-.4,1.8-1v.8h.1Zm-1.6-.7c-1,0-1.5-.9-1.5-1.8c0-1,.4-1.9,1.6-1.9c1.1,0,1.6.8,1.6,1.8-.1,1-.6,1.9-1.7,1.9v0Z"/><path d="M86.4,72.6l-5.2,4.8l4.6,4.5" fill="none" stroke="#707070" stroke-linecap="round" stroke-linejoin="round"/><path d="M235.7,72.6l5.2,4.8-4.6,4.5" fill="none" stroke="#707070" stroke-linecap="round" stroke-linejoin="round"/></g></g><g id="e2hpNW6OF0a108" opacity="0"><path d="M654.3,303.2h32c2.2,0,4,1.8,4,4v32c0,2.2-1.8,4-4,4h-32c-2.2,0-4-1.8-4-4v-32c0-2.3,1.8-4,4-4Z" fill="#8860d0"/><path d="M666.8,321.2h1.2v-7.9h-1.1l-1.8,1.2v1.1l1.7-1.1v6.7Zm2.5-1.8h3.9v1.7h1.2v-1.7h1.1v-1h-1.1v-5.2h-1.6l-3.5,5.7v.5Zm1.3-.9l2.5-4.3v4.3h-2.5Zm-10,14.7h1v-5.7l2.3,5.7h.5l2.3-5.7v5.7h1.1v-7.2h-1.5l-2.1,5.3-2.1-5.3h-1.5v7.2Zm10.9.1c1.4,0,2.6-1.1,2.7-2.5c0-.1,0-.1,0-.2.1-1.4-1-2.6-2.4-2.7-.1,0-.1,0-.2,0-1.4,0-2.6,1.1-2.7,2.5c0,.1,0,.1,0,.2-.1,1.4,1,2.6,2.4,2.7.1,0,.1,0,.2,0Zm0-.9c-1.1,0-1.6-.8-1.6-1.9c0-1,.4-1.9,1.6-1.9c1.1,0,1.6.9,1.6,1.9s-.4,1.9-1.6,1.9v0Zm3.9.8h1v-3.2c-.1-.7.5-1.3,1.2-1.3.1,0,.1,0,.2,0c.8,0,1.2.5,1.2,1.3v3.2h1v-3.2c0-1.2-.6-2.1-1.9-2.1-.7-.1-1.4.3-1.7.9v-.8h-1v5.2Z" fill="#fff"/></g><g id="e2hpNW6OF0a111_ts" transform="translate(608.296997,74.050003) scale(0,0)"><g transform="translate(-608.296997,-87.050003)"><g transform="translate(-880.483-458.107)"><g transform="translate(1334.72 495.107)"><g transform="translate(-454.24-37)"><path d="M525,53.1h166.6c3.3,0,6,2.7,6,6v55.9c0,3.3-2.7,6-6,6h-166.6c-3.3,0-6-2.7-6-6v-55.9c0-3.3,2.7-6,6-6Z" filter="url(#e2hpNW6OF0a115-filter)" fill="#fff"/></g><path d="M131,51.1c.3,1.1,1.3,1.8,2.4,1.7c1.1.1,2.1-.8,2.2-1.9c0-1.4-1-1.6-2-1.8-.8-.2-1.6-.3-1.6-1.2c0-.7.5-1.1,1.3-1.1.7,0,1.3.5,1.5,1.1l.6-.3c-.3-.9-1.2-1.5-2.1-1.5-1-.1-1.9.7-2,1.7c0,0,0,0,0,0c0,1.4,1.1,1.6,2,1.8.8.2,1.6.3,1.6,1.2-.1.7-.7,1.3-1.4,1.2c0,0,0,0,0,0-.8,0-1.5-.6-1.7-1.4l-.8.5Zm8.6,1.7h.7v-3.1c0-.9-.7-1.7-1.6-1.7-.1,0-.1,0-.2,0-.8,0-1.5.4-1.9,1.2l.6.3c.2-.5.7-.8,1.2-.8.9,0,1.1.6,1.1,1.4v0h-.2c-1.1,0-2.9,0-2.9,1.5c0,.8.6,1.4,1.4,1.4.1,0,.1,0,.2,0c.6,0,1.1-.2,1.5-.7v.5h.1Zm0-2.3v.6c-.1.7-.7,1.2-1.4,1.1c0,0,0,0,0,0-.5,0-.9-.2-.9-.8c0-.8,1-.9,1.6-.9h.7Zm2.2,2.3h.8v-7.1l-.8.3v6.8Zm5.4-1.4c-.2.5-.7.8-1.3.8-.8,0-1.5-.6-1.5-1.4c0-.1,0-.1,0-.2h3.5c0-1.4-.5-2.6-2.1-2.6-1.2,0-2.2,1.1-2.2,2.3c0,0,0,.1,0,.1-.1,1.2.8,2.3,2.1,2.4.1,0,.1,0,.2,0c.8,0,1.6-.4,2-1.2l-.7-.2Zm-2.7-1.5c0-.8.6-1.3,1.4-1.4.7-.1,1.3.5,1.3,1.2c0,.1,0,.1,0,.2h-2.7Zm4.2,1.7c.3.8,1,1.3,1.8,1.2.9,0,1.7-.5,1.7-1.5s-.8-1.2-1.5-1.3c-.6-.1-1.1-.2-1.1-.8c0-.5.4-.7.8-.7.5,0,.9.3,1.1.7l.6-.3c-.3-.6-1-1.1-1.7-1.1-.8-.1-1.5.5-1.6,1.3c0,0,0,0,0,0c0,1,.8,1.2,1.5,1.3.6.1,1.1.3,1.1.8s-.5.7-1.1.7c-.5,0-1-.3-1.2-.9l-.4.6Zm6.6,1.2h4.1v-.6h-3.3v-2.3h2.6v-.6h-2.6v-2.3h3.2v-.6h-3.9v6.4h-.1Zm5.2,0h.7v-2.9c0-.7.5-1.3,1.2-1.3.1,0,.1,0,.2,0c.8,0,1.2.4,1.2,1.2v2.9h.7v-2.8c0-1.1-.6-1.9-1.7-1.9-.6,0-1.2.3-1.5.8v-.7h-.7l-.1,4.7Zm8.9,1.6h.7v-6.4h-.7v.8c-.4-.5-1-.9-1.6-.8-1.2,0-2.2,1.1-2.2,2.3c0,0,0,.1,0,.1-.2,1.2.7,2.2,1.8,2.4.1,0,.2,0,.3,0c.7,0,1.3-.3,1.7-.9v2.5Zm-1.6-2.2c-.9,0-1.5-.8-1.5-1.6c0,0,0-.1,0-.1c0-1,.4-1.9,1.5-1.9s1.5.8,1.5,1.8c.1,1-.4,1.8-1.5,1.8Zm7,.6h.7v-4.8h-.7v2.9c.1.7-.4,1.2-1.1,1.3-.1,0-.1,0-.2,0-.6.1-1.1-.3-1.2-.9c0-.1,0-.2,0-.3v-3h-.7v3c-.1.9.5,1.7,1.4,1.8.1,0,.2,0,.3,0c.6,0,1.2-.3,1.4-.8v.8h.1Zm2.1-6.1c0,.3.2.5.5.5c0,0,0,0,0,0c.3,0,.5-.2.5-.5c0,0,0,0,0,0c0-.3-.2-.5-.5-.5c0,0,0,0,0,0-.3,0-.5.2-.5.5c0,0,0,0,0,0v0Zm.1,6.1h.7v-4.7h-.7v4.7Zm2.3,0h.7v-2.6c0-1.1.5-1.5,1.5-1.5v-.7c-.7,0-1.3.3-1.5.9v-.8h-.7v4.7Zm3.8,1.6h.8l2.6-6.3h-.8l-1.3,3.4-1.4-3.4h-.8l1.8,4.2-.9,2.1Z"/><path d="M130.9,67.5h.7l.5-1.6h2.4l.5,1.6h.7l-2-5.7h-.9l-1.9,5.7Zm1.4-2.1l1-3l1,3h-2Zm4.1,1.1c.2.7.9,1.1,1.6,1.1.8,0,1.5-.4,1.5-1.3s-.7-1-1.4-1.2c-.5-.1-1-.2-1-.7c0-.4.4-.6.8-.6s.8.2,1,.6l.5-.2c-.3-.6-.8-.9-1.5-1s-1.3.5-1.4,1.2c0,0,0,0,0,0c0,.9.7,1,1.3,1.2.5.1,1,.2,1,.8c0,.5-.5.7-.9.7-.5,0-.9-.3-1.1-.8l-.4.2Zm7,1h.7v-4.2h-.7v2.5c.1.6-.4,1.1-1,1.1-.1,0-.1,0-.2,0-.5.1-1-.3-1.1-.8c0-.1,0-.2,0-.3v-2.6h-.7v2.8c-.1.8.5,1.5,1.3,1.6.1,0,.2,0,.3,0c.5,0,1-.3,1.3-.7v.6h.1Zm4.3,0h.7v-2.7c0-.8-.6-1.5-1.4-1.5-.1,0-.1,0-.2,0-.7,0-1.4.4-1.7,1l.6.2c.2-.4.6-.7,1-.7.8,0,1,.5,1,1.2v0h-.1c-.9,0-2.5,0-2.5,1.3c0,.7.6,1.2,1.2,1.2c0,0,.1,0,.1,0c.5,0,1-.2,1.3-.6v.6Zm0-2v.5c-.1.6-.6,1.1-1.3,1c0,0,0,0,0,0-.4,0-.8-.2-.8-.7c0-.7.9-.8,1.5-.8h.6Zm1.2,3.2h.6l2.3-7.4h-.6l-2.3,7.4Zm3.7-1.2h.7v-2.2l1.9,2.2h.8l-2-2.2l1.9-1.9h-.8l-1.8,1.9v-3.8h-.7v6Zm5.8.1c1.1,0,2.1-.9,2.1-2c0,0,0-.1,0-.1.1-1.1-.8-2.1-1.9-2.2c0,0-.1,0-.1,0-1.1,0-2.1.9-2.1,2c0,0,0,.1,0,.1-.1,1.1.8,2.1,1.9,2.1c0,.1.1.1.1.1Zm0-.6c-.9,0-1.4-.7-1.4-1.6s.4-1.6,1.4-1.6c.8,0,1.4.7,1.4,1.4c0,.1,0,.1,0,.2.1.8-.5,1.5-1.2,1.6-.1,0-.1,0-.2,0v0Zm3.1.5h.7v-6.3l-.7.3v6Zm2,0h.7v-2.2l1.9,2.2h.8l-2-2.2l1.9-1.9h-.8l-1.8,1.9v-3.8h-.7v6Zm6.6,0h.7v-2.7c0-.8-.6-1.5-1.4-1.5-.1,0-.1,0-.2,0-.7,0-1.4.4-1.7,1l.6.2c.2-.4.6-.7,1.1-.7.8,0,1,.5,1,1.2v0h-.1c-.9,0-2.5,0-2.5,1.3c0,.7.6,1.2,1.2,1.2c0,0,.1,0,.1,0c.5,0,1-.2,1.3-.6l-.1.6Zm0-2v.5c-.1.6-.6,1.1-1.3,1c0,0,0,0,0,0-.4,0-.8-.2-.8-.7c0-.7.9-.8,1.5-.8h.6Zm3.7,1.4c-.2.1-.3.1-.5.1-.4,0-.5-.3-.5-.6v-2.5h1v-.6h-1v-1.1l-.7.3v.8h-.6v.6h.6v2.6c-.1.5.3,1,.9,1.1.1,0,.2,0,.3,0c.2,0,.4,0,.6-.1l-.1-.6Zm3.4.6h.7v-2.7c0-.8-.6-1.5-1.4-1.5-.1,0-.1,0-.2,0-.7,0-1.4.4-1.7,1l.6.2c.2-.4.6-.7,1-.7.8,0,1,.5,1,1.2v0h-.2c-.9,0-2.5,0-2.5,1.3c0,.7.6,1.2,1.2,1.2c0,0,.1,0,.1,0c.5,0,1-.2,1.3-.6v.6h.1Zm0-2v.5c-.1.6-.6,1.1-1.3,1c0,0,0,0,0,0-.4,0-.8-.2-.8-.7c0-.7.9-.8,1.5-.8h.6Zm3.3.1h1.7v-.6h-1.7v.6Zm4.4,1.9h.7v-5.7h-.7v5.7Zm1.9-1.5c.2,1,1.1,1.6,2.1,1.5c1,.1,1.9-.7,2-1.7c0-1.2-.9-1.4-1.8-1.6-.7-.1-1.4-.3-1.4-1.1c0-.6.5-1,1.2-1c.6,0,1.1.4,1.3,1l.6-.3c-.3-.8-1-1.3-1.9-1.3-.9-.1-1.7.6-1.8,1.5c0,0,0,0,0,0c0,1.2,1,1.4,1.8,1.6.7.2,1.4.3,1.4,1.1-.1.6-.6,1.1-1.3,1.1c0,0,0,0,0,0-.7,0-1.4-.5-1.5-1.3l-.7.5Zm6.3,1.5h.7v-5.2h1.7v-.6h-4v.6h1.7v5.2h-.1Zm6.7,1.2c-.9-1-1.4-2.3-1.4-3.7s.5-2.7,1.4-3.7h-.7c-.9,1-1.4,2.3-1.4,3.7s.5,2.7,1.4,3.7h.7Zm1.8-2h.6v-1.7h1.5v-.6h-1.5v-1.6h-.6v1.6h-1.5v.6h1.5v1.7Zm5.2.9c1.8,0,2.3-1.6,2.2-3.1c0-1.4-.6-2.8-2.2-2.8s-2.2,1.4-2.2,2.8c-.1,1.4.4,3.1,2.2,3.1Zm0-.6c-1.4,0-1.6-1.4-1.6-2.4s.3-2.3,1.5-2.3s1.5,1.2,1.5,2.2c.1,1,0,2.5-1.4,2.5Zm3.1-.8c.2.9,1,1.4,1.9,1.4c1,0,1.9-.8,2-1.8c0,0,0-.1,0-.1.1-1-.7-1.8-1.6-1.9c0,0-.1,0-.1,0-.4,0-.8.1-1.2.4v-1.7h2.6v-.6h-3.2v3.1h.3c.3-.4.8-.6,1.3-.6.7,0,1.2.6,1.2,1.2c0,0,0,.1,0,.1.1.7-.4,1.3-1.1,1.4-.1,0-.1,0-.2,0-.6.1-1.2-.4-1.3-1l-.6.1Zm5.6-2.4c.3,0,.5-.2.5-.5s-.2-.5-.5-.5c0,0,0,0,0,0-.3,0-.5.2-.5.5c0,0,0,0,0,0c0,.3.2.5.5.5c0,0,0,0,0,0v0Zm-.5,2.5c0,.3.2.5.5.5c0,0,0,0,0,0c.3,0,.5-.2.5-.5c0,0,0,0,0,0c0-.3-.2-.5-.5-.5c0,0,0,0,0,0-.3,0-.5.2-.5.5c0,0,0,0,0,0v0Zm2-.2c.2.9,1,1.5,1.9,1.4c1,0,2-.5,2-1.7c0-.7-.4-1.3-1.1-1.4.6-.2.9-.7.9-1.2c0-.9-.8-1.6-1.7-1.5c0,0,0,0,0,0-.9,0-1.6.5-1.9,1.4l.5.2c.1-.6.7-1.1,1.3-1c.5-.1,1,.3,1,.8c0,.1,0,.1,0,.2c0,.9-.7,1-1.4,1h-.1v.6h.1c.8,0,1.6.1,1.6,1.1c0,.8-.6,1.1-1.3,1.1s-1.2-.5-1.4-1.1l-.4.1Zm7.2,1.5c1.8,0,2.3-1.6,2.2-3.1c0-1.4-.6-2.8-2.2-2.8s-2.2,1.4-2.2,2.8.4,3.1,2.2,3.1Zm.1-.6c-1.4,0-1.6-1.4-1.6-2.4s.3-2.3,1.5-2.3s1.5,1.2,1.5,2.2c.1,1,0,2.5-1.4,2.5v0Zm3.4,1.7c.9-1,1.3-2.3,1.3-3.7c0-1.3-.5-2.7-1.3-3.7h-.7c.9,1,1.3,2.3,1.3,3.7c0,1.3-.4,2.7-1.3,3.7h.7Z"/><path d="M132.3,37.5h1v-6.5h-.9l-1.5,1v.9l1.4-.9v5.5Zm2.1-1.4h3.2v1.4h1v-1.4h.9v-.8h-.9v-4.3h-1.3l-2.9,4.6v.5Zm1.1-.8l2.1-3.5v3.5h-2.1Zm6.3,2.1c.3.1.6.2.9.2.9.1,1.8-.6,1.9-1.5c0-.1,0-.3,0-.4v-4.7h-1v4.5c0,.7-.3,1.2-1,1.2-.3,0-.6-.1-.8-.2v.9Zm7.4.1h.9v-4.7h-.9v2.8c0,.6-.4,1.2-1,1.2-.1,0-.1,0-.2,0-.5.1-1-.3-1.1-.9c0-.1,0-.2,0-.2v-2.9h-.9v3c-.1.9.5,1.7,1.4,1.8.1,0,.2,0,.3,0c.6,0,1.2-.3,1.5-.8v.7Zm2.4,0h.9v-2.8c0-.6.4-1.2,1-1.2.1,0,.1,0,.2,0c.7,0,1.1.4,1.1,1.1v2.9h.9v-2.9c0-1.1-.5-1.9-1.7-1.9-.6,0-1.2.3-1.5.8v-.7h-.9v4.7Zm8.7-1.4c-.2.5-.7.8-1.3.7-.7,0-1.4-.6-1.4-1.3c0-.1,0-.1,0-.2h3.5c0-1.5-.5-2.6-2.2-2.6-1.3,0-2.3,1-2.3,2.3c0,.1,0,.1,0,.2-.1,1.2.9,2.3,2.1,2.4.1,0,.2,0,.3,0c.8,0,1.6-.4,2-1.1l-.7-.4Zm-2.6-1.5c0-.7.6-1.3,1.3-1.3.8,0,1.2.5,1.2,1.3h-2.5Zm5.8,2.9h4.5v-.8h-3l1.7-1.5c.7-.6,1.2-1.4,1.3-2.4c0-1-.8-1.8-1.8-1.8-.1,0-.1,0-.2,0-1.1,0-2,.7-2.2,1.8l.8.3c.2-.7.6-1.3,1.4-1.3.5,0,1,.3,1,.8c0,.1,0,.1,0,.2-.1.7-.4,1.4-1,1.9l-2.5,2.4v.4Zm5.5-1.8c.3,1.1,1.3,1.9,2.5,1.8c1.8,0,2.6-1.5,2.6-3.2s-.6-3.5-2.6-3.5c-1.8,0-2.7,1.5-2.7,3.1c0,.7.1,1.3.2,1.8v0Zm2.5,1c-1.3,0-1.7-1.2-1.7-2.3s.1-2.7,1.6-2.7c1.3,0,1.6,1.3,1.6,2.3c0,1.2,0,2.7-1.5,2.7v0Zm3.3.8h4.5v-.8h-3l1.7-1.5c.7-.6,1.2-1.4,1.3-2.4c0-1-.8-1.8-1.8-1.8-.1,0-.1,0-.2,0-1.1,0-2,.7-2.2,1.8l.8.3c.2-.7.6-1.3,1.4-1.3.5,0,1,.3,1,.8c0,.1,0,.1,0,.2-.1.7-.4,1.4-1,1.9l-2.5,2.4v.4Zm5.2-1.4h3.2v1.4h1v-1.4h.9v-.8h-.9v-4.3h-1.3L180,35.6v.5Zm1.2-.8l2.1-3.5v3.5h-2.1Zm8.7,3.5h.7v-8.4h-.7v8.4Zm5.1-1.3h1v-6.5h-.9l-1.5,1v.9L195,32v5.5Zm3.8,0h1v-6.5h-.9l-1.5,1v.9l1.4-.9v5.5Zm2.7-4.8c0,.4.3.6.6.6c0,0,0,0,0,0c.4,0,.6-.3.7-.6c0,0,0,0,0,0c0-.4-.3-.7-.7-.7-.3.1-.6.4-.6.7c0,0,0,0,0,0Zm0,3.3c0,.4.3.6.6.6c0,0,0,0,0,0c.4,0,.6-.3.7-.6c0,0,0,0,0,0c0-.4-.3-.7-.7-.6-.3,0-.6.3-.6.6c0,0,0,0,0,0Zm2.7-.3c.3,1.1,1.3,1.8,2.5,1.8c1.8,0,2.6-1.5,2.6-3.2s-.6-3.5-2.6-3.5c-1.8,0-2.7,1.5-2.7,3.1c0,.7.1,1.3.2,1.8v0Zm2.5,1c-1.3,0-1.7-1.2-1.7-2.3s.1-2.7,1.6-2.7c1.3,0,1.6,1.3,1.6,2.3.1,1.2,0,2.7-1.5,2.7v0Zm3.9-1c.3,1.1,1.3,1.9,2.5,1.8c1.8,0,2.6-1.5,2.6-3.2s-.6-3.5-2.6-3.5c-1.8,0-2.7,1.5-2.7,3.1c0,.7,0,1.3.2,1.8v0Zm2.5,1c-1.3,0-1.7-1.2-1.7-2.3s.1-2.7,1.6-2.7c1.3,0,1.6,1.3,1.6,2.3c0,1.2-.1,2.7-1.5,2.7v0Zm8.2.8h.9v-3.1c0-.9-.7-1.7-1.6-1.7-.1,0-.2,0-.3,0-.8-.1-1.6.4-1.9,1.1l.8.3c.2-.5.6-.7,1.1-.7.9,0,1,.5,1,1.3h-.6c-1.1,0-2.4.2-2.4,1.5c0,.8.6,1.4,1.4,1.4.1,0,.1,0,.2,0c.6,0,1.1-.2,1.4-.7v.6Zm0-2.2v.5c-.1.6-.6,1.1-1.2,1c0,0,0,0,0,0-.5,0-.8-.2-.8-.7c0-.8.9-.9,1.5-.9l.5.1Zm2.2,2.2h.9v-2.8c-.1-.6.4-1.1,1-1.2c0,0,.1,0,.1,0c.6,0,1,.4,1,1.1v2.9h.9v-2.8c-.1-.6.4-1.1.9-1.2c0,0,.1,0,.1,0c.7,0,1,.4,1,1.1v2.9h.9v-3c.1-.9-.5-1.7-1.4-1.8-.1,0-.2,0-.2,0-.6,0-1.3.3-1.6.9-.3-.6-.8-.9-1.5-.9-.6,0-1.1.3-1.4.8v-.7h-.9v4.7h.2Z"/><g transform="translate(5.769 11.126)"><g transform="translate(9.265 4.276)"><g transform="translate(0 2.851)"><path d="M68.7,16.1h27.6c2.2,0,4,1.8,4,4v24.1c0,2.2-1.8,4-4,4h-27.6c-2.2,0-4-1.8-4-4v-24.1c0-2.2,1.8-4,4-4Z" fill="#fff"/><path d="M68.7,16.6h27.6c1.9,0,3.5,1.6,3.5,3.5v24.1c0,1.9-1.6,3.5-3.5,3.5h-27.6c-1.9,0-3.5-1.6-3.5-3.5v-24.1c0-1.9,1.6-3.5,3.5-3.5Z" fill="none" stroke="#000"/></g><line x1="65.1" y1="25" x2="100" y2="25" fill="none" stroke="#000"/><g transform="translate(7.127 0)"><path d="M66.2,16.1v0c.8,0,1.4.6,1.4,1.4v2.9c0,.8-.6,1.4-1.4,1.4v0c-.8,0-1.4-.6-1.4-1.4v-2.9c-.1-.7.6-1.4,1.4-1.4Z" fill="#fff"/><path d="M66.2,16.6v0c.5,0,.9.4.9.9v2.9c0,.5-.4.9-.9.9v0c-.5,0-.9-.4-.9-.9v-2.9c-.1-.5.4-.9.9-.9Z" fill="none" stroke="#000"/></g><path d="M65.4,25.4h34.2v0v20.9c0,2.2-1.8,4-4,4h-26.2c-2.2,0-4-1.8-4-4v-20.9v0Z" fill="#f5f4fd"/><g transform="translate(24.943 0)"><path d="M66.2,16.1v0c.8,0,1.4.6,1.4,1.4v2.9c0,.8-.6,1.4-1.4,1.4v0c-.8,0-1.4-.6-1.4-1.4v-2.9c-.1-.7.6-1.4,1.4-1.4Z" fill="#fff"/><path d="M66.2,16.6v0c.5,0,.9.4.9.9v2.9c0,.5-.4.9-.9.9v0c-.5,0-.9-.4-.9-.9v-2.9c-.1-.5.4-.9.9-.9Z" fill="none" stroke="#000"/></g><g transform="translate(13.17 17.164)"><g><line x1="64.7" y1="20.1" x2="68.1" y2="22.9" fill="none" stroke="#000" stroke-linecap="round"/><line x1="74" y1="16.1" x2="68.1" y2="22.9" fill="none" stroke="#000" stroke-linecap="round"/></g></g></g><g><circle r="1.4" transform="translate(70.4 43.2)" fill="#8ad4f5"/><circle r="1.1" transform="translate(119.3 30.7)" fill="#ecd881"/><circle r="0.7" transform="translate(120.3 44.6)" fill="#93d8f7"/><circle r="0.7" transform="translate(81.1 61)" fill="#ee8e73"/><circle r="1.1" transform="translate(67.9 32.2)" fill="#e99075"/><circle r="0.7" transform="translate(76.1 16.8)" fill="#d7dcb1"/><circle r="1.1" transform="translate(65.8 51.4)" fill="#f7d75a"/></g></g></g><g transform="matrix(-.987688-.156434 0.156434-.987688 1389.28 553.741)"><g><path d="M-62.9,2.8c-.8-.1-1.6-.4-2.4-.8-.7-.5-1.2-1.2-1.2-2.1c0-1.7,1.9-3,3.5-2.7.7.1,1.3.5,1.6,1.1.3.5.1,1-.3,1.3-.1.1-.2.1-.3.1-.4,0-.8-.1-1.1-.4-.5-.5-.7-1.2-.5-1.9.2-1.7,1.6-3,3.4-3.2" fill="none" stroke="#ff5757" stroke-linecap="round" stroke-miterlimit="10"/></g></g><g transform="translate(1342.51 499.031)"><g><path d="M70.1,28.9c-1.2-.2-2.4-.6-3.5-1.2-1.1-.7-1.8-1.8-1.8-3.1-.1-2.6,2.8-4.4,5.2-4.1c1,.1,1.9.7,2.3,1.6.4.7.2,1.6-.5,2-.2.1-.3.2-.5.2-.6.1-1.2-.2-1.6-.6-.7-.7-1-1.8-.8-2.8.4-2.5,2.4-4.5,5-4.8" fill="none" stroke="#7e57ff" stroke-linecap="round" stroke-miterlimit="10"/></g></g><path d="M1454.3,525.8l2.1,4.2h-4.2l2.1-4.2Z" fill="#6d8ee6"/><path d="M1406.8,569.9l-2.1-2.1h4.2l-2.1,2.1Z" fill="#f09948"/><rect width="3.4" height="3.4" rx="0" ry="0" transform="translate(1437.4 518.7)" fill="#7bc9f3"/><g transform="translate(1374.8 554.999)"><line x1="64.7" y1="16.1" x2="66" y2="17.4" fill="none" stroke="#6b8de8" stroke-linecap="round"/><line x1="66" y1="16.1" x2="64.7" y2="17.4" fill="none" stroke="#6b8de8" stroke-linecap="round"/></g></g></g></g><g transform="translate(-20 3)"><g><g mask="url(#e2hpNW6OF0a160)"><path d="M163.9,428.6c-20.2-10.8-37.7-28.6-44.6-50.8-1.8-5.8-2.8-12.5-3.2-18.5c0-.9-.1-3.4-.1-4.4c0,0,0-1.5,0-1.5l.1-1.5c.9-19.6,11.8-35,28.5-44.8c15.8-8.7,44-12.1,51.6,8.7c2.2,7.3-3.7,12.1-10.5,12.6-9.8.8-19.9-3.1-27-10-10.7-10.4-12.5-25.8-3.4-37.8c15.9-20.3,44.4-25.4,68.8-23.3.6.1,1,.5.9,1.1s-.5,1-1.1.9c-22.1-1.8-46.8,2.5-63.1,18.5-19.1,18.9-5.4,45.2,19.2,48.4c4.9.5,11.6.2,13.9-4.8c1.8-5.1-2.4-10.4-6-13.6-11.5-9-30.3-5.2-42.3,1.2-9.6,5.6-18.2,13.9-22.9,24.1-9.3,20.1-4.1,46.6,8.1,64.5c8.5,12.6,20.1,23,33.1,30.8.2.1.1.3,0,.2v0Z" fill="#4bbc81"/><mask id="e2hpNW6OF0a160" mask-type="alpha" x="-150%" y="-150%" height="400%" width="400%"><path id="e2hpNW6OF0a161" d="M165.583997,429.076923q-13.583999-2.636678-35.484-31.026678c-21.900001-28.39-17.753844-74.188756,14.5-89.8s51.1-.339,51.4,9.561-13.365998,15.939-35.095998.849753-5.604002-45.243753,16.595998-53.610753q22.2-8.367,45.1-6.2" transform="translate(.000003-.450245)" fill="none" stroke="#3f5787" stroke-width="2" stroke-linecap="round" stroke-dashoffset="368.85" stroke-dasharray="368.85"/></mask></g></g></g><g id="e2hpNW6OF0a162_ts" transform="translate(308.844971,202.851013) scale(0,0)"><g transform="translate(-320.844971,-237.851013)"><g transform="translate(-938.083-508.295)"><g transform="translate(1102.49 644.156)"><g transform="translate(-164.41-135.86)"><path d="M235.6,152h170.5c3.3,0,6,2.7,6,6v159.7c0,3.3-2.7,6-6,6h-170.5c-3.3,0-6-2.7-6-6v-159.7c0-3.3,2.7-6,6-6Z" filter="url(#e2hpNW6OF0a166-filter)" fill="#fff"/></g></g><g transform="translate(-2-3.063)"><g transform="translate(1122.27 665.651)"><g><g transform="translate(-.31 16.349)"><path d="M67.7,16.1h142c1.7,0,3,1.3,3,3v20.3c0,1.7-1.3,3-3,3h-142c-1.7,0-3-1.3-3-3v-20.3c0-1.6,1.4-3,3-3Z" fill="#fff"/><path d="M67.7,16.6h142c1.4,0,2.5,1.1,2.5,2.5v20.3c0,1.4-1.1,2.5-2.5,2.5h-142c-1.4,0-2.5-1.1-2.5-2.5v-20.3c0-1.4,1.2-2.5,2.5-2.5Z" fill="none" stroke="#dadada"/></g><g transform="translate(-.309 65.349)"><path d="M67.7,16.1h142c1.7,0,3,1.3,3,3v20.3c0,1.7-1.3,3-3,3h-142c-1.7,0-3-1.3-3-3v-20.3c0-1.6,1.4-3,3-3Z" fill="#fff"/><path d="M67.7,16.6h142c1.4,0,2.5,1.1,2.5,2.5v20.3c0,1.4-1.1,2.5-2.5,2.5h-142c-1.4,0-2.5-1.1-2.5-2.5v-20.3c0-1.4,1.2-2.5,2.5-2.5Z" fill="none" stroke="#dadada"/></g><path d="M65.3,75.6h4.6v-.7h-3.7v-2.6h2.8v-.7h-2.9v-2.4h3.5v-.7h-4.4v7.1h.1Zm5.8,0h.8v-3.2c-.1-.7.5-1.3,1.2-1.4c0,0,.1,0,.1,0c.6-.1,1.2.4,1.3,1c0,.1,0,.2,0,.3v3.3h.8v-3.2c-.1-.7.5-1.3,1.2-1.4c0,0,.1,0,.1,0c.6-.1,1.2.4,1.3,1c0,.1,0,.2,0,.3v3.3h.8v-3.2c.1-1-.6-1.9-1.6-2.1-.1,0-.2,0-.3,0-.7,0-1.4.3-1.7,1-.3-.6-1-1-1.7-1-.6,0-1.2.3-1.4.9v-.8h-.8l-.1,5.2Zm12.1,0h.8v-3.4c0-1-.8-1.9-1.8-1.9-.1,0-.2,0-.2,0-.9,0-1.7.5-2.1,1.3l.7.3c.2-.5.7-.9,1.3-.9c1,0,1.2.6,1.2,1.5v0h-.1c-1.2,0-3.2,0-3.2,1.6c0,.9.7,1.5,1.6,1.5.1,0,.1,0,.2,0c.6,0,1.2-.3,1.7-.7l-.1.7Zm0-2.5v.6c-.1.8-.8,1.3-1.6,1.3c0,0,0,0,0,0-.6,0-1-.2-1-.9c0-.9,1.1-1,1.8-1h.8Zm2.3-4.2c0,.3.2.5.5.6c0,0,0,0,0,0c.3,0,.5-.2.6-.5c0,0,0,0,0,0c0-.3-.2-.5-.5-.6c0,0,0,0,0,0-.4-.1-.6.2-.6.5c0,0,0,0,0,0v0Zm.1,6.7h.8v-5.2h-.8v5.2Zm2.6,0h.8v-7.9l-.8.4v7.5Z"/><path d="M65.3,26.1h.8v-6.1l3.7,6.1h1v-7.1h-.8v5.9L66.5,19h-1.1v7.1h-.1Zm10.2,0h.8v-3.4c0-1-.8-1.9-1.8-1.9-.1,0-.2,0-.2,0-.9,0-1.7.5-2.1,1.3l.7.3c.2-.5.7-.9,1.3-.9c1,0,1.2.6,1.2,1.5v0h-.2C74,23,72,23,72,24.6c0,.9.7,1.5,1.6,1.5.1,0,.1,0,.2,0c.6,0,1.2-.3,1.7-.7v.7Zm0-2.5v.6c-.1.8-.8,1.3-1.6,1.3c0,0,0,0,0,0-.6,0-1-.2-1-.9c0-.9,1.1-1,1.8-1h.8Zm2.4,2.5h.8v-3.2c-.1-.7.5-1.3,1.2-1.4c0,0,.1,0,.1,0c.6-.1,1.2.4,1.3,1c0,.1,0,.2,0,.3v3.3h.8v-3.2c-.1-.7.5-1.3,1.2-1.4c0,0,.1,0,.1,0c.6-.1,1.2.4,1.3,1c0,.1,0,.2,0,.3v3.3h.8v-3.2c.1-1-.6-1.9-1.6-2.1-.1,0-.2,0-.3,0-.7,0-1.4.3-1.7,1-.3-.6-1-1-1.7-1-.6,0-1.2.3-1.5.9v-.8h-.8v5.2Zm12.8-1.5c-.3.5-.8.9-1.4.9-.9,0-1.7-.7-1.7-1.6c0-.1,0-.2,0-.2h3.9c0-1.6-.6-2.9-2.4-2.9-1.4,0-2.5,1.2-2.5,2.6c0,.1,0,.1,0,.2-.1,1.4.9,2.6,2.3,2.7.1,0,.1,0,.2,0c.9,0,1.8-.5,2.2-1.3l-.6-.4ZM87.6,23c0-.8.7-1.5,1.6-1.5.8-.1,1.4.5,1.5,1.3c0,.1,0,.1,0,.2h-3.1Z"/><path d="M95.5,21.6l.6.4.7-1.2.7,1.2.6-.4-.8-1.1l1.2-.3-.2-.7-1.2.5.1-1.3h-.7l.1,1.3-1.2-.5-.2.7l1.2.3-.9,1.1Z" fill="#f00"/><path d="M93.5,69.6l.6.4.7-1.2.7,1.2.6-.4-.8-1.1l1.2-.3-.2-.7-1.2.5.1-1.3h-.7l.1,1.3-1.2-.5-.2.7l1.2.3-.9,1.1Z" fill="#f00"/></g><g transform="translate(-.65 101.774)"><path d="M68.1,15.9h142c1.7,0,3,1.3,3,3v23.8c0,1.7-1.3,3-3,3h-142c-1.7,0-3-1.3-3-3v-23.8c0-1.7,1.3-3,3-3Z" fill="#1f91ff"/><path d="M85.2,32.1c.4,1.2,1.5,2,2.8,1.9c1.3.1,2.4-.8,2.6-2.1c0,0,0,0,0,0c0-1.6-1.2-1.8-2.3-2-.9-.2-1.7-.3-1.7-1.2c0-.7.6-1,1.3-1s1.3.4,1.5,1.1l.9-.4c-.4-1-1.3-1.7-2.4-1.6-1.3,0-2.4.7-2.4,2c0,1.6,1.2,1.8,2.3,2c.9.2,1.7.3,1.7,1.2c0,.8-.7,1.2-1.5,1.2-.9,0-1.6-.6-1.8-1.4l-1,.3ZM95.4,32c-.2.7-.8,1.1-1.5,1.1-1.1,0-1.6-.8-1.6-1.8s.4-1.9,1.5-1.9c.7,0,1.2.4,1.5,1l.9-.4c-.4-.9-1.3-1.5-2.3-1.5-1.4,0-2.6,1.1-2.6,2.5c0,.1,0,.1,0,.2-.1,1.4.9,2.6,2.2,2.7.1,0,.2,0,.3,0c1.1.1,2.1-.6,2.4-1.6l-.8-.3Zm2,1.9h1v-3.1c-.1-.7.5-1.3,1.2-1.3.1,0,.1,0,.2,0c.8,0,1.2.4,1.2,1.3v3.2h1v-3.2c.1-1-.6-2-1.6-2.1-.1,0-.2,0-.3,0-.7,0-1.4.3-1.7.9v-3.3h-1v7.6Zm9.7-1.6c-.3.5-.8.9-1.4.8-.8,0-1.5-.6-1.5-1.5c0-.1,0-.1,0-.2h3.9c0-1.6-.6-2.9-2.4-2.9-1.4,0-2.5,1.1-2.5,2.5c0,.1,0,.1,0,.2-.1,1.4.9,2.6,2.3,2.7.1,0,.2,0,.3,0c.9.1,1.8-.4,2.2-1.3l-.9-.3Zm-2.9-1.6c0-.8.7-1.4,1.5-1.4s1.3.6,1.3,1.4h-2.8Zm8.8,3.2h1v-7.7h-1v3.3c-.4-.6-1.1-1-1.8-.9-1.4,0-2.5,1.2-2.4,2.6c0,.1,0,.1,0,.2c0,1.5.8,2.7,2.3,2.7.7,0,1.4-.4,1.8-1v.8h.1Zm-1.6-.8c-1,0-1.5-.9-1.5-1.8c0-1,.4-1.9,1.6-1.9c1.1,0,1.6.8,1.6,1.8-.1,1.1-.6,1.9-1.7,1.9v0Zm7.6.8h1v-5.2h-1v3.1c0,.7-.5,1.3-1.2,1.3-.1,0-.1,0-.2,0-.6.1-1.1-.4-1.2-1c0-.1,0-.2,0-.3v-3.2h-1v3.4c-.1,1,.6,1.9,1.5,2c.1,0,.2,0,.3,0c.7.1,1.4-.3,1.7-.9l.1.8Zm2.6,0h1v-7.7l-1,.5v7.2Zm6.2-1.6c-.3.5-.8.9-1.4.8-.8,0-1.5-.6-1.5-1.5c0-.1,0-.1,0-.2h3.9c0-1.6-.6-2.9-2.4-2.9-1.4,0-2.5,1.1-2.5,2.5c0,.1,0,.1,0,.2-.1,1.4.9,2.6,2.3,2.7.1,0,.2,0,.3,0c.9.1,1.8-.4,2.2-1.3l-.9-.3Zm-2.9-1.6c0-.8.7-1.4,1.5-1.4s1.3.6,1.3,1.4h-2.8Zm6.4,3.2h1.1l.6-1.8h2.9l.6,1.8h1.1l-2.4-7.1h-1.5l-2.4,7.1Zm1.9-2.7l1.2-3.6l1.2,3.6h-2.4Zm5.3,4.5h1v-2.7c.4.6,1.1,1,1.8.9c1.5,0,2.4-1.3,2.4-2.7.2-1.3-.8-2.5-2.1-2.7-.1,0-.2,0-.3,0-.7,0-1.4.4-1.8,1v-.9h-1v7.1Zm2.7-2.6c-1.1,0-1.6-.8-1.6-1.9c0-1,.5-1.9,1.6-1.9.9,0,1.6.7,1.6,1.6c0,.1,0,.1,0,.2-.1,1.1-.5,2-1.6,2Zm3.7,2.6h1v-2.7c.4.6,1.1,1,1.8.9c1.5,0,2.4-1.3,2.4-2.7.2-1.3-.8-2.5-2.1-2.7-.1,0-.2,0-.3,0-.7,0-1.4.4-1.8,1v-.9h-1v7.1Zm2.6-2.6c-1.1,0-1.6-.8-1.6-1.9c0-1,.5-1.9,1.6-1.9.9,0,1.6.7,1.6,1.6c0,.1,0,.1,0,.2-.1,1.1-.4,2-1.6,2Zm6,.9c1.4,0,2.6-1.1,2.7-2.5c0-.1,0-.1,0-.2.1-1.4-1-2.6-2.4-2.7-.1,0-.1,0-.2,0-1.4,0-2.6,1.1-2.7,2.5c0,.1,0,.1,0,.2-.1,1.4,1,2.6,2.4,2.7c0,0,.1,0,.2,0v0Zm0-.9c-1.1,0-1.6-.8-1.6-1.9c0-1,.4-1.9,1.6-1.9c1.1,0,1.6.9,1.6,1.9s-.4,1.9-1.6,1.9Zm3.7-6c0,.4.3.6.6.6.4,0,.6-.3.6-.6c0-.4-.3-.6-.6-.6c0,0,0,0,0,0-.3,0-.6.3-.6.6Zm.1,6.8h1v-5.2h-1v5.2Zm2.6,0h1v-3.1c-.1-.7.5-1.3,1.2-1.3.1,0,.1,0,.2,0c.8,0,1.2.5,1.2,1.3v3.2h1v-3.2c0-1.2-.6-2.1-1.9-2.1-.7-.1-1.4.3-1.7.9v-.8h-1v5.1Zm8.6-.9c-.2.1-.4.1-.6.1-.5,0-.7-.3-.7-.7v-2.9h1.2v-.8h-1.2v-1.5l-1,.4v1h-.7v.8h.7v3c-.1.7.4,1.4,1.1,1.5.1,0,.2,0,.4,0c.3,0,.5,0,.8-.1v-.8Zm1.1.9h1v-3.2c-.1-.6.4-1.2,1.1-1.3.1,0,.1,0,.2,0c.7,0,1.1.4,1.1,1.2v3.3h1v-3.2c-.1-.6.4-1.2,1-1.3c0,0,.1,0,.1,0c.8,0,1.1.4,1.1,1.2v3.3h1v-3.3c.1-1-.6-1.9-1.5-2-.1,0-.2,0-.3,0-.7,0-1.4.3-1.8,1-.3-.6-.9-1-1.6-1-.6,0-1.2.3-1.5.9v-.8h-1v5.2h.1Zm12.8-1.6c-.3.5-.8.9-1.4.8-.8,0-1.5-.6-1.5-1.5c0-.1,0-.1,0-.2h3.9c0-1.6-.6-2.9-2.4-2.9-1.4,0-2.5,1.1-2.5,2.5c0,.1,0,.1,0,.2-.1,1.4.9,2.6,2.3,2.7.1,0,.2,0,.3,0c.9.1,1.8-.4,2.2-1.3l-.9-.3Zm-2.9-1.6c0-.8.7-1.4,1.5-1.4.9,0,1.3.6,1.3,1.4h-2.8Zm5,3.2h1v-3.1c-.1-.7.5-1.3,1.2-1.3.1,0,.1,0,.2,0c.8,0,1.2.5,1.2,1.3v3.2h1v-3.2c0-1.2-.6-2.1-1.9-2.1-.7-.1-1.4.3-1.7.9v-.8h-1v5.1ZM193,33c-.2.1-.4.1-.6.1-.5,0-.7-.3-.7-.7v-2.9h1.2v-.8h-1.2v-1.5l-1,.4v1h-.7v.8h.7v3c-.1.7.4,1.4,1.1,1.5.1,0,.2,0,.4,0c.3,0,.5,0,.8-.1v-.8Z" fill="#fff"/></g></g><path d="M1195.8,715.1h.8v-5.8h1.9v-.6h-4.5v.6h1.9v5.8h-.1Zm5.3.1c1.3,0,2.4-1,2.4-2.3c0-.1,0-.1,0-.2.1-1.3-.9-2.4-2.2-2.4-.1,0-.1,0-.2,0-1.3,0-2.3,1-2.4,2.3c0,.1,0,.1,0,.2-.1,1.3.9,2.3,2.1,2.4.2,0,.2,0,.3,0Zm0-.6c-1,0-1.6-.8-1.6-1.8s.5-1.8,1.5-1.8c.9,0,1.6.7,1.6,1.6c0,.1,0,.1,0,.2.1.9-.5,1.7-1.4,1.8c0,0,0,0-.1,0v0Zm3.5.5h.7v-.8c.4.6,1,.9,1.7.9c1.2,0,2.2-1.1,2.2-2.3c0-.1,0-.1,0-.2.1-1.2-.7-2.3-1.9-2.4-.1,0-.1,0-.2,0-.7,0-1.3.3-1.7.9v-2.9h-.7v6.8h-.1Zm2.3-.5c-.9,0-1.6-.7-1.6-1.6c0-.1,0-.2,0-.2-.1-.9.5-1.7,1.4-1.8.1,0,.2,0,.2,0c1,0,1.5.9,1.5,1.8s-.3,1.8-1.5,1.8v0Zm3.7,2.2h.8l2.6-6.3h-.8l-1.3,3.4-1.4-3.4h-.8l1.8,4.2-.9,2.1Z" opacity="0.8"/><path d="M1196.5,762.5c-.2.1-.4.1-.5.1-.5,0-.6-.3-.6-.7v-2.9h1.1v-.6h-1.1v-1.2l-.7.3v.9h-.7v.6h.7v2.9c-.1.6.3,1.2,1,1.2.1,0,.2,0,.3,0c.2,0,.4,0,.6-.1v-.5h-.1Zm3.1.7c1.3,0,2.3-1,2.4-2.3c0-.1,0-.1,0-.2.1-1.3-.9-2.4-2.2-2.4-.1,0-.1,0-.2,0-1.3,0-2.3,1-2.4,2.3c0,.1,0,.1,0,.2-.1,1.3.9,2.3,2.1,2.4.1,0,.2,0,.3,0Zm0-.6c-1,0-1.6-.8-1.6-1.8s.5-1.8,1.5-1.8c.9,0,1.6.7,1.6,1.6c0,.1,0,.1,0,.2.1.9-.5,1.7-1.4,1.8c0,0-.1,0-.1,0Zm3.5.5h.7v-.8c.4.6,1,.9,1.7.9c1.2,0,2.2-1.1,2.2-2.3c0-.1,0-.1,0-.2.1-1.2-.7-2.3-1.9-2.4-.1,0-.1,0-.2,0-.7,0-1.3.3-1.7.9v-2.9h-.7v6.8h-.1Zm2.3-.5c-.9,0-1.6-.7-1.6-1.6c0-.1,0-.2,0-.2-.1-.9.5-1.7,1.4-1.8.1,0,.2,0,.2,0c1,0,1.5.9,1.5,1.8-.1.9-.4,1.8-1.5,1.8Zm3.6,2.2h.8l2.6-6.3h-.8l-1.3,3.4-1.4-3.4h-.8l1.8,4.2-.9,2.1Zm4-1.1c.4.8,1.2,1.2,2.1,1.1c1.3,0,2.4-.7,2.4-2v-4.4h-.7v.8c-.4-.5-1-.9-1.6-.8-1.2,0-2.2,1.1-2.2,2.3c0,0,0,0,0,.1-.1,1.2.8,2.2,2,2.3c0,0,.1,0,.1,0c.7,0,1.3-.3,1.7-.9v.7c0,.8-.6,1.4-1.4,1.5-.1,0-.2,0-.2,0-.6.1-1.2-.2-1.5-.8l-.7.1Zm2.2-1.4c-.9,0-1.5-.8-1.5-1.6c0,0,0,0,0,0-.1-.9.5-1.6,1.4-1.7.1,0,.1,0,.2,0c.8,0,1.5.6,1.5,1.5c0,.1,0,.1,0,.2.1.9-.5,1.6-1.4,1.7-.1-.1-.1-.1-.2-.1Zm6.4.8h.7v-3.1c0-.9-.7-1.7-1.6-1.7-.1,0-.1,0-.2,0-.8,0-1.5.4-1.9,1.2l.6.3c.2-.5.7-.8,1.2-.8.9,0,1.1.6,1.1,1.4v0h-.2c-1.1,0-2.9,0-2.9,1.5c0,.8.6,1.4,1.4,1.4c0,0,.1,0,.1,0c.6,0,1.1-.2,1.5-.7v.5h.2Zm0-2.2v.6c-.1.7-.7,1.2-1.4,1.1c0,0,0,0,0,0-.5,0-.9-.2-.9-.8c0-.8,1-.9,1.6-.9h.7Zm2.2,2.2h.7v-.8c.4.6,1,.9,1.7.9c1.2,0,2.2-1.1,2.2-2.3c0-.1,0-.1,0-.2.1-1.2-.7-2.3-1.9-2.4-.1,0-.1,0-.2,0-.7,0-1.3.3-1.7.9v-2.9h-.7l-.1,6.8Zm2.3-.5c-.9,0-1.6-.7-1.6-1.6c0-.1,0-.2,0-.2-.1-.9.5-1.7,1.4-1.8.1,0,.2,0,.2,0c1,0,1.5.9,1.5,1.8s-.3,1.8-1.5,1.8Zm3.4.5h.7v-2.6c0-1.1.5-1.5,1.5-1.5v-.7c-.7,0-1.3.3-1.5.9v-.8h-.7v4.7Zm3.3-6c0,.3.2.5.5.5c0,0,0,0,0,0c.3,0,.5-.2.5-.5c0,0,0,0,0,0c0-.3-.2-.5-.5-.5c0,0,0,0,0,0-.3,0-.5.2-.5.5c0,0,0,0,0,0Zm.1,6h.7v-4.7h-.7v4.7Zm5.4-1.3c-.2.5-.7.8-1.3.8-.8,0-1.5-.6-1.5-1.4c0-.1,0-.1,0-.2h3.5c0-1.4-.5-2.6-2.1-2.6-1.2,0-2.2,1.1-2.2,2.3c0,0,0,.1,0,.1-.1,1.2.8,2.3,2.1,2.4.1,0,.1,0,.2,0c.8,0,1.6-.4,2-1.2l-.7-.2Zm-2.7-1.5c0-.8.6-1.3,1.4-1.4.7-.1,1.3.5,1.3,1.2c0,.1,0,.1,0,.2h-2.7Zm4.6,2.8h.8v-7.1l-.8.3v6.8Zm2.3,0h.7v-2.9c-.1-.6.4-1.2,1.1-1.3c0,0,.1,0,.1,0c.6-.1,1.1.3,1.1.9c0,.1,0,.2,0,.3v3h.7v-2.9c-.1-.6.4-1.2,1.1-1.3c0,0,.1,0,.1,0c.6-.1,1.1.3,1.1.9c0,.1,0,.2,0,.3v3h.7v-2.9c.1-.9-.5-1.8-1.5-1.9-.1,0-.2,0-.2,0-.6,0-1.2.3-1.5.9-.3-.6-.9-.9-1.5-.9s-1.1.3-1.3.8v-.7h-.7v4.7Zm10.9,0h.7v-3.1c0-.9-.7-1.7-1.6-1.7-.1,0-.1,0-.2,0-.8,0-1.5.4-1.9,1.2l.6.3c.2-.5.7-.8,1.2-.8.9,0,1.1.6,1.1,1.4v0h-.2c-1.1,0-2.9,0-2.9,1.5c0,.8.6,1.4,1.4,1.4.1,0,.1,0,.2,0c.6,0,1.1-.2,1.5-.7l.1.5Zm0-2.2v.6c-.1.7-.7,1.2-1.4,1.1c0,0,0,0,0,0-.5,0-.9-.2-.9-.8c0-.8,1-.9,1.6-.9h.7Zm5.3,2.2h.7v-4.7h-.7v2.9c.1.7-.4,1.2-1.1,1.3-.1,0-.1,0-.2,0-.6.1-1.1-.3-1.2-.9c0-.1,0-.2,0-.3v-2.9h-.7v3c-.1.9.5,1.7,1.4,1.8.1,0,.2,0,.3,0c.6,0,1.2-.3,1.5-.8v.6Zm2.3,0h.7v-2.6c0-1.1.5-1.5,1.5-1.5v-.7c-.7,0-1.3.3-1.5.9v-.8h-.7v4.7Zm3.2-6c0,.3.2.5.5.5c0,0,0,0,0,0c.3,0,.5-.2.5-.5c0,0,0,0,0,0c0-.3-.2-.5-.5-.5c0,0,0,0,0,0-.3,0-.5.2-.5.5c0,0,0,0,0,0v0Zm.1,6h.7v-4.7h-.7v4.7Zm5.7-1.6c-.2.6-.8,1.1-1.4,1.1-.9,0-1.6-.7-1.6-1.6c0-.1,0-.1,0-.2c0-.9.5-1.9,1.5-1.9.6,0,1.2.4,1.4,1l.7-.3c-.3-.8-1.2-1.3-2.1-1.3-1.3,0-2.3,1-2.3,2.3c0,0,0,.1,0,.1-.1,1.2.8,2.3,2,2.4.1,0,.2,0,.2,0c1,0,1.8-.6,2.1-1.4l-.5-.2Zm4.9.3c-.2.5-.7.8-1.3.8-.8,0-1.5-.6-1.5-1.4c0-.1,0-.1,0-.2h3.5c0-1.4-.5-2.6-2.1-2.6-1.2,0-2.2,1.1-2.2,2.3c0,0,0,.1,0,.1-.1,1.2.8,2.3,2.1,2.4.1,0,.1,0,.2,0c.8,0,1.6-.4,2-1.2l-.7-.2Zm-2.7-1.5c0-.8.6-1.3,1.4-1.4.7-.1,1.3.5,1.3,1.2c0,.1,0,.1,0,.2h-2.7Zm10.3,2.8c-.6.5-1.5.8-2.3.7-1.6.1-3-1.2-3-2.8c0-.1,0-.2,0-.3-.1-1.7,1.2-3.2,3-3.2.1,0,.1,0,.2,0c1.5-.2,2.8.9,2.9,2.3c0,.1,0,.3,0,.4c0,1-.4,1.7-1,1.7-.3,0-.4-.2-.4-.5v-.1-.2l.3-2.3h-.7l-.1.5c-.2-.4-.6-.7-1.1-.6-1.1.1-1.9,1-1.8,2c0,0,0,0,0,0-.1.8.5,1.5,1.2,1.6.1,0,.1,0,.2,0c.6,0,1.1-.3,1.3-.8c0,.5.4.8,1,.8c1,0,1.7-1,1.7-2.3c0-1.8-1.5-3.3-3.4-3.3-.1,0-.1,0-.2,0-2.1,0-3.8,1.7-3.8,3.8c0,0,0,0,0,0-.1,2,1.5,3.6,3.5,3.7.1,0,.2,0,.3,0c1.1.1,2.1-.3,2.8-1.1h-.6ZM1280,762c-.5,0-.8-.4-.8-1.1-.1-.7.4-1.3,1.1-1.4c0,0,0,0,.1,0c.5,0,.8.3.8,1c0,.8-.5,1.4-1.2,1.5Zm4.4,1.1h3.9v-.7h-2.8l2.8-3.7v-.3h-3.7v.6h2.6l-2.9,3.8.1.3Zm5.3,1.7h.8l2.6-6.3h-.8l-1.3,3.4-1.4-3.4h-.8l1.8,4.2-.9,2.1Zm4.4-1.7h.8v-7.1l-.8.3v6.8Zm2.2,0h.7v-2.4l2.2,2.4h.9l-2.3-2.5l2.1-2.2h-.9l-2,2.2v-4.3h-.7v6.8Zm7.8-1.3c-.2.5-.7.8-1.3.8-.8,0-1.5-.6-1.5-1.4c0-.1,0-.1,0-.2h3.5c0-1.4-.5-2.6-2.1-2.6-1.2,0-2.2,1.1-2.2,2.3c0,0,0,.1,0,.1-.1,1.2.8,2.3,2.1,2.4.1,0,.1,0,.2,0c.8,0,1.6-.4,2-1.2l-.7-.2Zm-2.7-1.5c0-.8.6-1.3,1.4-1.4.7,0,1.3.5,1.3,1.2c0,.1,0,.1,0,.2h-2.7Zm4.6,2.8h.7v-2.6c0-1.1.5-1.5,1.5-1.5v-.7c-.7,0-1.3.3-1.5.9v-.8h-.7v4.7Zm2.7-.5c0,.3.2.6.6.6c0,0,0,0,0,0c.3,0,.6-.2.6-.6c0,0,0,0,0,0c0-.3-.3-.6-.6-.6-.4,0-.6.3-.6.6c0,0,0,0,0,0Zm6-1.1c-.2.6-.8,1.1-1.4,1.1-.9,0-1.6-.7-1.6-1.6c0-.1,0-.1,0-.2c0-.9.5-1.9,1.5-1.9.6,0,1.2.4,1.4,1l.7-.3c-.3-.8-1.2-1.3-2.1-1.3-1.3,0-2.3,1-2.3,2.3c0,0,0,.1,0,.1-.1,1.2.8,2.3,2,2.4.1,0,.2,0,.3,0c1,0,1.8-.6,2.1-1.4l-.6-.2Zm3.7,1.7c1.3,0,2.3-1,2.4-2.3c0-.1,0-.1,0-.2.1-1.3-.9-2.4-2.2-2.4-.1,0-.1,0-.2,0-1.3,0-2.3,1-2.4,2.3c0,.1,0,.1,0,.2-.1,1.3.9,2.3,2.1,2.4.2,0,.3,0,.3,0v0Zm0-.6c-1,0-1.6-.8-1.6-1.8s.5-1.8,1.5-1.8c.9,0,1.6.7,1.6,1.6c0,.1,0,.1,0,.2.1.9-.5,1.7-1.4,1.8.1,0,0,0-.1,0v0Zm3.5.5h.7v-2.9c-.1-.6.4-1.2,1.1-1.3c0,0,.1,0,.1,0c.6-.1,1.1.3,1.1.9c0,.1,0,.2,0,.3v3h.7v-2.9c-.1-.6.4-1.2,1.1-1.3c0,0,.1,0,.1,0c.6-.1,1.1.3,1.1.9c0,.1,0,.2,0,.3v3h.7v-2.9c.1-.9-.5-1.8-1.5-1.9-.1,0-.2,0-.2,0-.6,0-1.2.3-1.5.9-.3-.6-.9-.9-1.5-.9s-1.1.3-1.3.8v-.7h-.7v4.7Z"/></g></g><g id="e2hpNW6OF0a185_ts" transform="translate(388.527718,248.892) scale(1,1)"><rect width="134.610718" height="23.691" rx="0" ry="0" transform="translate(-134.610718,-11.041)" fill="#fff" stroke-width="0"/></g><g id="e2hpNW6OF0a186_ts" transform="translate(285.18231,200.3832) scale(1,1)"><rect width="31.26531" height="17.900798" rx="0" ry="0" transform="translate(-31.26531,-8.950399)" fill="#fff" stroke-width="0"/></g></g></g><g transform="translate(0-30)"><g><g mask="url(#e2hpNW6OF0a191)"><path d="M421.8,267.4c13.1,7.4,29.7,7.5,43.2,1.1c10-4.7,19.2-12,24.9-21.6s6.9-21.4,4.3-32.2c-1.5-7.2-5.6-13.7-11.5-18.2-6.6-5.7-23.8-12.1-27.2-.2-2.9,12.1,11.7,17.4,21.3,18.7c10.9,1.5,22.4.6,32.9-3.1c17.3-7.1,33.8-16.4,51-23.7c13.8-6.2,28.5-9.8,43.1-13.4c7.3-1.7,14.6-3.5,22.1-4.6.3,0,.5.2.5.4c0,.3-.2.5-.5.6-14.8,2.2-29.3,6.3-43.8,10.2-21.6,6.3-41.3,17.8-61.6,27.4-6.8,3.3-13.9,6.4-21.4,7.6-11.2,1.9-23.1,1.7-33.8-2.5-5.3-2.1-10.9-6.1-12-12.2-1.2-6.3,2.2-12.8,8.9-13.8c7.9-1.2,15.5,2.4,21.5,7.1c12.4,9.6,15.5,27.3,11.6,41.9-3,11.1-10.8,20.4-20.2,26.7-15.2,11.2-36.7,13.7-53.3,3.8v0Z" fill="#4bbc81"/><mask id="e2hpNW6OF0a191" mask-type="alpha" x="-150%" y="-150%" height="400%" width="400%"><path id="e2hpNW6OF0a192" d="M421.8,267.4q27.839,13.057185,50.355-2.8c22.516-15.857185,27.681627-28.965997,21.116-53.168661-5-18.431342-29.924-30.87091-37.771-18.431341s7.271,23.400001,32.171,23.400001s34.403211-9.779745,52.584-18.225988c24.616-11.435846,56.845-22.155161,85.645-27.974013" transform="translate(0 0.000002)" fill="none" stroke="#3f5787" stroke-width="2" stroke-linecap="round" stroke-dashoffset="361.13" stroke-dasharray="361.13"/></mask></g></g></g><g id="e2hpNW6OF0a193_to" style="offset-path:path('M147.313313,434.652269Q115.83713,417.511603,101.559313,386.886301C87.281496,356.260999,104.208732,321.825061,121.728313,313.360999C134.228315,307.321997,153.489313,297.434611,169.739313,311.321999C185.989313,325.209387,171.228313,344.200002,145.643313,325.761C120.058313,307.321998,133.154123,290.121999,137.05425,284.960999C145.260248,274.102082,164.059313,259.104341,205.459313,262.760999');offset-rotate:0deg"><g id="e2hpNW6OF0a193_tr" transform="rotate(-127.515695)"><g id="e2hpNW6OF0a193_ts" transform="scale(0,0)"><g transform="translate(-630.504155,-164.099996)"><path d="M624.6,158.1l30.6-3.1c0,0,0,0,0,.1l-16,12.8c-.3.3-.8.3-1.2,0l-4.7-3.6c-.4-.3-.9-.2-1.1.2l-3.2,6.3c-.1.3-.5.1-.5-.1l.8-8.9c0-.5-.2-.9-.6-1.2l-4.2-2.1c-.2,0-.1-.3.1-.4Z" fill="none" stroke="#4bbc81" stroke-width="2" stroke-linecap="round" stroke-miterlimit="10"/><line x1="636.3" y1="167" x2="628.9" y2="171.6" fill="none" stroke="#4bbc81" stroke-width="2" stroke-linecap="round" stroke-miterlimit="10"/><line x1="632.8" y1="164.1" x2="654.3" y2="155.8" fill="none" stroke="#4bbc81" stroke-width="2" stroke-linecap="round" stroke-miterlimit="10"/><line x1="629.1" y1="161" x2="653.9" y2="155.1" fill="none" stroke="#4bbc81" stroke-width="2" stroke-linecap="round" stroke-miterlimit="10"/></g></g></g></g><g id="e2hpNW6OF0a198_to" style="offset-path:path('M421.8,236.967Q443.155002,250.816661,468.971002,236.325831C494.787002,221.835001,496.740815,198.986625,496.024815,191.893625C495.308815,184.800625,486.423875,160.251,466.671001,158.793C446.918127,157.335,443.371002,187.693002,480.871,186.993C518.370998,186.292998,530.984999,173.535,545.970999,165.934999C560.956998,158.334998,600.052998,146.370665,622.152998,140.792998');offset-rotate:0deg"><g id="e2hpNW6OF0a198_tr" transform="rotate(32.229166)"><g id="e2hpNW6OF0a198_ts" transform="scale(0,0)"><g transform="translate(-630.504155,-164.099996)"><path d="M624.6,158.1l30.6-3.1c0,0,0,0,0,.1l-16,12.8c-.3.3-.8.3-1.2,0l-4.7-3.6c-.4-.3-.9-.2-1.1.2l-3.2,6.3c-.1.3-.5.1-.5-.1l.8-8.9c0-.5-.2-.9-.6-1.2l-4.2-2.1c-.2,0-.1-.3.1-.4Z" fill="none" stroke="#4bbc81" stroke-width="2" stroke-linecap="round" stroke-miterlimit="10"/><line x1="636.3" y1="167" x2="628.9" y2="171.6" fill="none" stroke="#4bbc81" stroke-width="2" stroke-linecap="round" stroke-miterlimit="10"/><line x1="632.8" y1="164.1" x2="654.3" y2="155.8" fill="none" stroke="#4bbc81" stroke-width="2" stroke-linecap="round" stroke-miterlimit="10"/><line x1="629.1" y1="161" x2="653.9" y2="155.1" fill="none" stroke="#4bbc81" stroke-width="2" stroke-linecap="round" stroke-miterlimit="10"/></g></g></g></g><g id="e2hpNW6OF0a203_to" transform="translate(725.372,412.864178)"><g id="e2hpNW6OF0a203_ts" transform="scale(0.5,0.5)"><polygon points="36.7,22.48 36.28,85.53 54.5,66.17 81.06,67.28 36.7,22.48" transform="translate(-58.67,-54.005)"/></g></g></svg>
