<svg version="1.2" xmlns="http://www.w3.org/2000/svg" viewBox="0 0 364 234" width="364" height="234">
	<title>banner-img1-svg</title>
	<style>
		tspan { white-space:pre } 
		.s0 { fill: #ffffff } 
		.s1 { fill: #0e82fd } 
		.s2 { fill: none;stroke: #ffffff;stroke-linecap: round;stroke-linejoin: round;stroke-width: 2 } 
		.t3 { font-size: 18px;line-height: 24px;fill: #000000;font-weight: 600;font-family: "Inter-SemiBold", "Inter" } 
	</style>
	<g id="Layer">
		<path id="Layer" class="s0" d="m90 2h184c5.5 0 10 4.5 10 10v32c0 5.5-4.5 10-10 10h-184c-5.5 0-10-4.5-10-10v-32c0-5.5 4.5-10 10-10z"/>
		<path id="Layer" class="s1" d="m97 13h18c3.3 0 6 2.7 6 6v18c0 3.3-2.7 6-6 6h-18c-3.3 0-6-2.7-6-6v-18c0-3.3 2.7-6 6-6z"/>
		<path id="Layer" fill-rule="evenodd" class="s2" d="m112.7 23l-9.2 9.2-4.2-4.2"/>
		<text id="24/7  Available" style="transform: matrix(1,0,0,1,136,35)" >
			<tspan x="0" y="0" class="t3">2</tspan><tspan  y="0" class="t3">4</tspan><tspan  y="0" class="t3">/</tspan><tspan  y="0" class="t3">7</tspan><tspan  y="0" class="t3"> </tspan><tspan  y="0" class="t3"> </tspan><tspan  y="0" class="t3">A</tspan><tspan  y="0" class="t3">v</tspan><tspan  y="0" class="t3">a</tspan><tspan  y="0" class="t3">i</tspan><tspan  y="0" class="t3">l</tspan><tspan  y="0" class="t3">a</tspan><tspan  y="0" class="t3">b</tspan><tspan  y="0" class="t3">l</tspan><tspan  y="0" class="t3">e</tspan><tspan  y="0" class="t3">
</tspan>
		</text>
	</g>
</svg>