<svg version="1.2" xmlns="http://www.w3.org/2000/svg" viewBox="0 0 40 40" width="40" height="40">
	<title>user-doctor</title>
	<defs>
		<clipPath clipPathUnits="userSpaceOnUse" id="cp1">
			<path d="m0 0h40v40h-40z"/>
		</clipPath>
	</defs>
	<style>
		.s0 { fill: #00cc52 } 
	</style>
	<g id="Clip-Path" clip-path="url(#cp1)">
		<g>
			<path class="s0" d="m34.4 24.8l-6.2-2.9q-0.7-0.2-1.4-0.2-0.7 0-1.4 0.3l-1.2 0.8c-1.3 0.7-2.7 1.1-4.2 1.1-1.5 0-2.9-0.4-4.2-1.1l-1.1-0.7h-0.1q-0.7-0.3-1.4-0.3-0.7-0.1-1.4 0.2l-6.1 2.8h-0.1q-0.7 0.3-1.1 0.9-0.3 0.6-0.3 1.4v8.7c0 0.5 0.1 0.9 0.5 1.2 0.3 0.3 0.7 0.5 1.1 0.5 0.5 0 0.9-0.2 1.2-0.5 0.3-0.3 0.5-0.7 0.5-1.2v-8.3l5.4-2.4v3.9c-0.8 0.3-1.5 0.9-2 1.6-0.4 0.8-0.6 1.7-0.4 2.6 0.1 0.8 0.6 1.6 1.3 2.2 0.6 0.6 1.5 0.9 2.4 0.9 0.9 0 1.7-0.3 2.4-0.9 0.7-0.6 1.1-1.4 1.3-2.2 0.1-0.9 0-1.8-0.5-2.6-0.4-0.7-1.1-1.3-2-1.6v-2.7c1.5 0.6 3 0.9 4.6 0.9 1.6 0 3.1-0.3 4.6-0.9v2.2c-1.1 0.3-2 0.9-2.7 1.8-0.7 0.9-1.1 1.9-1.1 3v2.1c0 0.6 0.3 1.1 0.6 1.5 0.4 0.4 1 0.6 1.5 0.6h0.9c0.3 0 0.6-0.1 0.8-0.4 0.3-0.2 0.4-0.5 0.4-0.8 0-0.4-0.1-0.7-0.4-0.9-0.2-0.3-0.5-0.4-0.8-0.4h-0.5v-1.7c0-0.6 0.3-1.3 0.8-1.7 0.4-0.5 1.1-0.8 1.7-0.8 0.7 0 1.3 0.3 1.8 0.8 0.5 0.4 0.7 1.1 0.7 1.7v1.7h-0.4c-0.3 0-0.6 0.1-0.9 0.4-0.2 0.2-0.3 0.5-0.3 0.9 0 0.3 0.1 0.6 0.3 0.8 0.3 0.3 0.6 0.4 0.9 0.4h0.9c0.5 0 1-0.2 1.4-0.6 0.4-0.4 0.6-0.9 0.6-1.5v-2.1c0-1.1-0.3-2.1-1-3-0.7-0.9-1.6-1.5-2.7-1.8v-3.4l5.4 2.4v8.3c0 0.5 0.2 0.9 0.5 1.2 0.3 0.3 0.7 0.5 1.2 0.5 0.4 0 0.8-0.2 1.1-0.5 0.4-0.3 0.5-0.7 0.5-1.2v-8.7q0.1-0.8-0.3-1.4-0.4-0.6-1.1-0.9zm-20.2 9q-0.4-0.1-0.7-0.3-0.3-0.2-0.5-0.5-0.1-0.4-0.1-0.7 0.1-0.4 0.4-0.7 0.3-0.2 0.6-0.3 0.4-0.1 0.7 0 0.4 0.2 0.6 0.5 0.2 0.3 0.2 0.7c0 0.3-0.1 0.7-0.3 0.9-0.3 0.2-0.6 0.4-0.9 0.4z"/>
			<path class="s0" d="m20 19.8c1.8 0 3.6-0.5 5.1-1.5 1.5-1 2.7-2.5 3.4-4.1 0.7-1.7 0.8-3.5 0.5-5.3-0.4-1.8-1.2-3.4-2.5-4.7-1.3-1.3-2.9-2.2-4.7-2.5-1.8-0.4-3.6-0.2-5.3 0.5-1.7 0.7-3.1 1.9-4.1 3.4-1 1.5-1.6 3.3-1.6 5.1 0 2.4 1 4.7 2.7 6.4 1.7 1.8 4.1 2.7 6.5 2.7zm0-15c1.2 0 2.3 0.4 3.2 1 1 0.7 1.8 1.6 2.2 2.6 0.4 1.1 0.6 2.3 0.3 3.4-0.2 1.1-0.8 2.2-1.6 3-0.8 0.8-1.8 1.4-3 1.6-1.1 0.2-2.3 0.1-3.3-0.3-1.1-0.5-2-1.2-2.6-2.2-0.7-1-1-2.1-1-3.2 0-1.6 0.6-3.1 1.7-4.2 1.1-1.1 2.6-1.7 4.1-1.7z"/>
		</g>
	</g>
</svg>