<svg version="1.2" xmlns="http://www.w3.org/2000/svg" viewBox="0 0 35 36" width="35" height="36">
	<title>work-03</title>
	<style>
		.s0 { fill: #00cc52 } 
		.s1 { fill: #00ff66 } 
	</style>
	<path class="s0" d="m34.9 9v-0.4h-34.9v21.4c0 1.6 1 2.6 2.7 2.6q6.6 0 13.2 0h0.4c-1-2.3-1-4.5 0.1-6.7 1.1-2.1 2.9-3.5 5.2-4.1 0-0.3-0.2-0.5-0.2-0.8q0-1.2 0-2.3c0-0.4 0.2-0.6 0.7-0.6q1.4 0 2.9 0c0.4 0 0.6 0.2 0.6 0.6q0 1.1 0 2.2c0 0.3 0 0.6-0.3 0.9 2.4 0.6 4.3 1.9 5.4 4.1 1.1 2.2 1.1 4.4 0.1 6.7 0.5 0 1 0 1.5 0 1.5 0.1 2.7-1.1 2.6-2.6 0-7 0-14 0-21zm-31.7 12.1q0-1.2 0-2.5c0-0.4 0.2-0.5 0.7-0.5q1.4 0 2.9 0c0.5 0 0.6 0.2 0.7 0.6q0 1.2 0 2.4c-0.1 0.5-0.3 0.7-0.7 0.7q-0.7 0-1.5 0-0.7 0-1.4 0-0.6 0-0.7-0.7zm4.5 7.2q0 0.6-0.6 0.6-0.8 0-1.5 0-0.7 0-1.4 0-0.7 0-0.7-0.6 0-1.3 0-2.5 0-0.6 0.7-0.6 1.4 0 2.9 0c0.4 0 0.6 0.3 0.6 0.7q0.1 1.2 0 2.4zm1.6-7.2q0-1.2 0-2.4c0-0.4 0.2-0.6 0.7-0.6q0.7 0 1.4 0 0.7 0 1.5 0c0.4 0 0.6 0.1 0.6 0.6q0 1.2 0 2.5 0 0.6-0.7 0.6-1.4 0-2.8 0c-0.5 0-0.7-0.2-0.7-0.7zm4.5 7.1c0 0.5-0.2 0.7-0.7 0.7q-0.7 0-1.4 0-0.7 0-1.4 0-0.7 0-0.7-0.7 0-1.1 0-2.3 0-0.7 0.7-0.7 1.4 0 2.8 0c0.5 0 0.7 0.2 0.7 0.7q0 1.2 0 2.3zm1.3-14.1q0-1.3 0-2.5 0-0.6 0.7-0.6 1.4 0 2.9 0 0.6 0 0.6 0.6 0.1 1.2 0 2.4c0 0.4-0.2 0.7-0.6 0.7q-0.8 0-1.5 0-0.7 0-1.4 0-0.7 0-0.7-0.6zm4.5 7q0 0.7-0.7 0.7-1.4 0-2.9 0-0.6 0-0.6-0.7-0.1-1.2 0-2.4c0-0.5 0.2-0.6 0.6-0.6q0.8 0 1.5 0 0.7 0 1.4 0c0.5 0 0.7 0.1 0.7 0.6q0 1.2 0 2.4zm5.8-7.1q0 0.7-0.7 0.7-0.7 0-1.4 0-0.7 0-1.4 0-0.7 0-0.7-0.7 0-1.2 0-2.4 0-0.6 0.6-0.6 1.5 0 3 0 0.6 0 0.6 0.6 0 1.2 0 2.4zm1.9 0.1q-0.1-1.3 0-2.5 0-0.6 0.6-0.6 1.5 0 2.9 0 0.7 0 0.7 0.6 0 1.2 0 2.5c0 0.3-0.3 0.6-0.7 0.6q-0.7 0-1.5 0-0.7 0-1.4 0c-0.4 0-0.6-0.2-0.6-0.6zm4.5 7.1c0 0.3-0.3 0.6-0.7 0.6q-1.5 0-2.9 0-0.6 0-0.7-0.6 0-1.3 0-2.6 0.1-0.5 0.6-0.5 0.8 0 1.6 0 0.7 0 1.4 0 0.6 0 0.7 0.6 0 1.2 0 2.5z"/>
	<path class="s0" d="m35 7.4h-35c0-1.2 0-2.3 0-3.4 0.1-1.1 1-2 2.1-2.1 0.7-0.1 1.4 0 2.1 0q0 0.2 0 0.4c0 0.7 0 1.4 0 2.1 0.1 0.9 0.8 1.6 1.8 1.6 0.9-0.1 1.7-0.8 1.7-1.7q0-1.2 0-2.4h8.1q0 1 0 2.1c0 0.2 0 0.4 0 0.7 0.2 0.8 1 1.3 1.9 1.3 0.8-0.1 1.5-0.8 1.5-1.6 0-0.8 0-1.7 0-2.5h8.1q0 0.1 0 0.3 0 1 0 2.1c0 0.9 0.8 1.6 1.7 1.7 1 0 1.7-0.7 1.8-1.7q0-1 0-2v-0.5c0.9 0.1 1.8-0.1 2.7 0.2 0.9 0.4 1.4 1.1 1.5 2 0 1.1 0 2.2 0 3.4z"/>
	<path class="s1" d="m23.6 22.7c-3.8 0-6.8 3-6.8 6.6-0.1 3.7 3 6.7 6.7 6.7 3.8 0 6.9-2.9 6.9-6.6 0-3.6-3.1-6.7-6.8-6.7zm3.5 4.9q-2.2 2.2-4.5 4.4c-0.4 0.3-0.6 0.3-1 0q-0.8-0.8-1.6-1.6-0.5-0.5-0.1-0.9c0.3-0.2 0.6-0.2 0.9 0.1 0.4 0.4 0.8 0.8 1.3 1.3 0.3-0.3 0.6-0.6 0.9-0.9q1.6-1.6 3.3-3.2 0.5-0.5 0.9-0.1 0.4 0.4-0.1 0.9z"/>
	<path class="s0" d="m18.1 4.1c0 0.5-0.2 0.7-0.6 0.7q-0.6 0-0.6-0.7 0-1.7 0-3.4 0-0.7 0.6-0.7 0.6 0 0.6 0.7 0 0.9 0 1.7 0 0.9 0 1.7z"/>
	<path class="s0" d="m29.6 2.4q0 0.9 0 1.8 0 0.6-0.6 0.6-0.5 0-0.5-0.6 0-1.8 0-3.5 0-0.7 0.6-0.7 0.5 0 0.5 0.7 0 0.8 0 1.7z"/>
	<path class="s0" d="m6.5 4.2c0 0.4-0.2 0.6-0.6 0.6q-0.5 0-0.5-0.7 0-0.8 0-1.7 0-0.9 0-1.7 0-0.7 0.5-0.7 0.6 0 0.6 0.7 0 1.7 0 3.5z"/>
	<path class="s0" d="m24.5 19.3h-1.8v1.4h1.8z"/>
	<path class="s0" d="m18.2 12.1h-1.9v1.4h1.9z"/>
	<path class="s0" d="m30.3 12.1h-1.9v1.4h1.9z"/>
	<path class="s0" d="m6.6 26.4h-1.9v1.4h1.9z"/>
	<path class="s0" d="m6.3 19.3h-1.9v1.4h1.9z"/>
	<path class="s0" d="m18.5 19.2h-1.9v1.5h1.9z"/>
	<path class="s0" d="m30.6 19.2h-1.9v1.5h1.9z"/>
	<path class="s0" d="m12.3 19.3l-1.8-0.1v1.5h1.8z"/>
	<path class="s0" d="m24.2 12.1h-1.8v1.4h1.8z"/>
	<path class="s0" d="m12.6 26.4h-1.8v1.4h1.8z"/>
</svg>